<svg width="25" height="26" viewBox="0 0 25 26" fill="none" xmlns="http://www.w3.org/2000/svg">
<path d="M23.2143 0.48584H1.78013C0.797991 0.48584 0 1.28744 0 2.27147V23.4669C0 24.4509 0.797991 25.2525 1.78013 25.2525H23.2143C24.1964 25.2525 25 24.4509 25 23.4669V2.27147C25 1.28744 24.1964 0.48584 23.2143 0.48584ZM7.5558 21.7144H3.85045V9.89496H7.56138V21.7144H7.5558ZM5.70312 8.28071C4.51451 8.28071 3.55469 7.32432 3.55469 6.15232C3.55469 4.98033 4.51451 4.02394 5.70312 4.02394C6.88616 4.02394 7.85156 4.98033 7.85156 6.15232C7.85156 7.32984 6.89174 8.28071 5.70312 8.28071ZM21.4453 21.7144H17.74V15.965C17.74 14.594 17.7121 12.8305 15.8147 12.8305C13.8839 12.8305 13.5882 14.3231 13.5882 15.8655V21.7144H9.88281V9.89496H13.4375V11.5092H13.4877C13.9844 10.5805 15.1953 9.60196 16.9978 9.60196C20.7478 9.60196 21.4453 12.051 21.4453 15.2353V21.7144Z" fill="white"/>
</svg>
