<svg width="558" height="297" viewBox="0 0 558 297" fill="none" xmlns="http://www.w3.org/2000/svg">
<g clip-path="url(#clip0)">
<path opacity="0.1" d="M515.107 234.769C514.486 236.109 513.866 237.43 513.248 238.734C512.284 240.759 511.332 242.745 510.393 244.691C509.975 245.554 509.557 246.4 509.15 247.247C504.543 256.66 500.241 264.985 496.587 271.832C493.271 278.036 488.349 283.234 482.334 286.882C476.32 290.529 469.435 292.492 462.401 292.565L381.155 293.449H380.298L373.333 293.524L367.376 293.589L349.107 293.787H348.368L339.067 293.889H338.783L281.459 294.51L230.29 295.046L224.338 295.11L187.371 295.512H187.328L163.354 295.769H163.097L87.2889 296.589L64.6109 296.835C59.7713 296.89 54.9522 296.2 50.3226 294.789C42.2661 292.355 35.0257 287.771 29.3803 281.529C19.6405 270.798 12.5419 258.278 7.77375 244.691C7.08442 242.73 6.44153 240.745 5.84507 238.734C-10.6612 182.936 9.46135 110.948 45.6777 62.7738C47.1956 60.7594 48.7385 58.795 50.3065 56.8806L50.344 56.8378C61.4821 43.1656 73.9703 31.7435 87.2728 23.6216C110.846 9.20476 136.963 5.14382 162.652 17.2463C184.387 27.4897 204.681 32.3061 224.354 33.6133C226.341 33.7418 228.329 33.8383 230.306 33.8972C275.432 35.3169 317.723 19.0571 367.387 8.56187C369.364 8.14399 371.346 7.73147 373.344 7.34037C408.773 0.289977 448.075 -3.42809 494.813 4.38842C499.669 5.18168 504.461 6.32763 509.15 7.81718C511.211 8.48151 513.197 9.19583 515.107 9.96016C537.416 19.0357 549.583 35.8045 554.753 56.8164C555.242 58.7665 555.665 60.7505 556.022 62.7685C565.189 113.311 538.343 185.004 515.107 234.769Z" fill="#6C63FF"/>
<g opacity="0.1">
<path opacity="0.1" d="M87.2728 23.621V296.647L64.5947 296.893C59.7552 296.948 54.936 296.258 50.3064 294.847V56.8371H50.3439C61.482 43.1489 73.9702 31.7268 87.2728 23.621Z" fill="#6C63FF"/>
<path opacity="0.1" d="M556.049 62.7732H45.6775C47.1954 60.7588 48.7384 58.7944 50.3063 56.88V56.8371H554.779C555.268 58.7765 555.692 60.7552 556.049 62.7732Z" fill="#6C63FF"/>
<path opacity="0.1" d="M515.107 9.96485V238.728H513.248C512.284 240.753 511.332 242.739 510.393 244.685C509.975 245.548 509.557 246.394 509.15 247.241V7.80045C511.211 8.46477 513.197 9.18623 515.107 9.96485Z" fill="#6C63FF"/>
<path opacity="0.1" d="M373.344 7.32364V293.545L367.387 293.609V8.54514C369.364 8.12725 371.346 7.71473 373.344 7.32364Z" fill="#6C63FF"/>
<path opacity="0.1" d="M230.306 33.8805V295.099L224.354 295.163V33.5965C226.341 33.7251 228.329 33.8001 230.306 33.8805Z" fill="#6C63FF"/>
<path opacity="0.1" d="M513.248 238.733C512.284 240.758 511.332 242.744 510.393 244.691H7.77365C7.08432 242.73 6.44143 240.744 5.84497 238.733H513.248Z" fill="#6C63FF"/>
</g>
<path d="M123.543 142.417H113.364V173.308H123.543V142.417Z" fill="#3F3D56"/>
<path d="M397.485 140.81H387.306V173.49H397.485V140.81Z" fill="#3F3D56"/>
<path d="M462.401 285.9V292.865L381.011 293.615L380.143 293.631L349.209 293.915L348.47 293.925L339.067 294.006H338.789L281.475 294.536L187.393 295.409H187.312L163.391 295.634L163.134 295.64L56.8425 296.615V288.579L81.835 273.578L131.981 273.16L133.052 273.155L133.406 273.149L134.477 273.133L158.554 272.935L159.63 272.93L159.973 272.924L161.045 272.919L168.765 272.855L168.968 272.849L188.014 272.688H188.17L336.785 271.435L340.423 271.408H340.787L343.562 271.381L363.733 271.215L364.804 271.199L365.796 271.188H366.31L372.583 271.14L373.826 271.124L375.492 271.113L380.716 271.065L389.004 270.996L390.075 270.985L391.94 270.974H392.288L432.314 270.631L462.401 285.9Z" fill="#65617D"/>
<path opacity="0.2" d="M462.401 285.9V292.865L381.011 293.615L380.143 293.631L349.209 293.915L348.47 293.925L339.067 294.006H338.789L281.475 294.536L187.393 295.409H187.312L163.391 295.634L163.134 295.64L56.8425 296.615V288.579L81.835 273.578L131.981 273.16L133.052 273.155L133.406 273.149L134.477 273.133L158.554 272.935L159.63 272.93L159.973 272.924L161.045 272.919L168.765 272.855L168.968 272.849L188.014 272.688H188.17L336.785 271.435L340.423 271.408H340.787L343.562 271.381L363.733 271.215L364.804 271.199L365.796 271.188H366.31L372.583 271.14L373.826 271.124L375.492 271.113L380.716 271.065L389.004 270.996L390.075 270.985L391.94 270.974H392.288L432.314 270.631L462.401 285.9Z" fill="black"/>
<path d="M158.634 259.118V272.238C158.634 272.86 158.458 273.469 158.126 273.994C157.794 274.519 157.32 274.94 156.759 275.206C156.341 275.409 155.884 275.519 155.419 275.528L136.722 275.924C136.223 275.936 135.727 275.832 135.275 275.619C134.704 275.357 134.22 274.937 133.881 274.408C133.542 273.879 133.362 273.263 133.363 272.635V259.118H158.634Z" fill="#3F3D56"/>
<path opacity="0.1" d="M158.634 259.118V272.238C158.634 272.86 158.458 273.469 158.126 273.994C157.794 274.519 157.32 274.94 156.759 275.206C156.341 275.409 155.884 275.519 155.419 275.528L136.722 275.924C136.223 275.936 135.727 275.832 135.275 275.619C134.704 275.357 134.22 274.937 133.881 274.408C133.542 273.879 133.362 273.263 133.363 272.635V259.118H158.634Z" fill="black"/>
<path d="M159.705 259.118V272.238C159.706 272.86 159.53 273.469 159.198 273.994C158.866 274.519 158.392 274.94 157.83 275.206C157.412 275.409 156.955 275.519 156.491 275.528L137.793 275.924C137.294 275.936 136.799 275.832 136.347 275.619C135.776 275.357 135.292 274.937 134.953 274.408C134.614 273.879 134.434 273.263 134.434 272.635V259.118H159.705Z" fill="#3F3D56"/>
<path d="M390.076 259.118H364.804V275.994H390.076V259.118Z" fill="#3F3D56"/>
<path opacity="0.1" d="M390.076 259.118H364.804V275.994H390.076V259.118Z" fill="black"/>
<path d="M389.004 259.118H363.733V275.994H389.004V259.118Z" fill="#3F3D56"/>
<path opacity="0.1" d="M123.543 142.412V145.481L113.364 145.219V142.412H123.543Z" fill="black"/>
<path d="M190.543 55.9317L178.312 143.794C178.234 144.355 177.952 144.868 177.521 145.235C177.089 145.601 176.537 145.796 175.97 145.781L78.0364 143.242L76.1773 143.194C75.8537 143.186 75.5352 143.11 75.2428 142.971C74.9504 142.832 74.6906 142.633 74.4803 142.387C74.27 142.141 74.114 141.853 74.0224 141.542C73.9307 141.232 73.9056 140.906 73.9486 140.585L87.6798 48.6081C87.7683 48.0384 88.0672 47.5225 88.5175 47.1625C88.9678 46.8024 89.5368 46.6243 90.112 46.6633L188.4 53.3173C188.717 53.3356 189.027 53.4196 189.31 53.5637C189.593 53.7079 189.843 53.9091 190.044 54.1548C190.246 54.4004 190.394 54.6852 190.48 54.991C190.565 55.2969 190.587 55.6172 190.543 55.9317Z" fill="#65617D"/>
<path d="M94.2534 53.1244L83.8975 134.199L173.902 137.054L184.971 58.8354L94.2534 53.1244Z" fill="#6C63FF"/>
<path d="M312.842 51.8708H208.903C207.326 51.8708 206.047 53.1492 206.047 54.7263V141.876C206.047 143.453 207.326 144.731 208.903 144.731H312.842C314.419 144.731 315.698 143.453 315.698 141.876V54.7263C315.698 53.1492 314.419 51.8708 312.842 51.8708Z" fill="#65617D"/>
<path d="M310.871 58.1229H211.223V135.447H310.871V58.1229Z" fill="#6C63FF"/>
<path opacity="0.1" d="M397.485 140.804V142.835L387.306 143.044V140.804H397.485Z" fill="black"/>
<path d="M443.414 139.09C443.429 139.312 443.398 139.535 443.324 139.744C443.251 139.954 443.135 140.147 442.985 140.311C442.835 140.475 442.653 140.607 442.451 140.7C442.248 140.792 442.029 140.842 441.807 140.847L341.515 142.921C341.099 142.929 340.694 142.78 340.383 142.503C340.072 142.225 339.878 141.841 339.839 141.426L331.218 51.8065C331.197 51.5841 331.221 51.3598 331.289 51.147C331.357 50.9342 331.468 50.7375 331.614 50.5687C331.76 50.3999 331.939 50.2625 332.14 50.1649C332.341 50.0674 332.56 50.0116 332.783 50.001L432.313 45.0507L433.385 44.9972C433.811 44.9747 434.229 45.1186 434.551 45.3985C434.872 45.6784 435.073 46.0723 435.11 46.4972L443.414 139.09Z" fill="#65617D"/>
<path d="M336.946 55.2674L427.845 50.7993L435.523 132.232L345.341 134.375L336.946 55.2674Z" fill="#6C63FF"/>
<path opacity="0.1" d="M443.414 139.09C443.429 139.312 443.398 139.535 443.324 139.744C443.251 139.954 443.135 140.147 442.985 140.311C442.835 140.475 442.653 140.607 442.451 140.7C442.248 140.792 442.029 140.842 441.807 140.847L432.313 45.0507L433.385 44.9972C433.811 44.9747 434.229 45.1186 434.551 45.3985C434.873 45.6784 435.073 46.0723 435.11 46.4972L443.414 139.09Z" fill="black"/>
<path opacity="0.1" d="M90.1281 46.658L78.0364 143.242L76.1773 143.194C75.8537 143.186 75.5352 143.11 75.2428 142.971C74.9504 142.832 74.6906 142.633 74.4803 142.387C74.27 142.141 74.114 141.853 74.0224 141.542C73.9307 141.232 73.9056 140.906 73.9486 140.585L87.6798 48.6081C87.7672 48.0344 88.068 47.5149 88.5219 47.1534C88.9758 46.7918 89.5494 46.6149 90.1281 46.658Z" fill="black"/>
<path opacity="0.1" d="M123.543 164.157H113.364V173.308H123.543V164.157Z" fill="black"/>
<path opacity="0.1" d="M159.705 259.113V261.775L134.434 262.45V259.113H159.705Z" fill="black"/>
<path d="M204.306 167.345V257.457C204.3 258.007 204.082 258.534 203.698 258.928C203.314 259.322 202.793 259.553 202.243 259.573L99.568 262.306H99.5412C98.9822 262.299 98.4479 262.074 98.0525 261.678C97.6572 261.283 97.432 260.749 97.425 260.19V167.345C97.432 166.786 97.6572 166.252 98.0525 165.856C98.4479 165.461 98.9822 165.236 99.5412 165.229H202.19C202.749 165.236 203.283 165.461 203.679 165.856C204.074 166.252 204.299 166.786 204.306 167.345Z" fill="#65617D"/>
<path opacity="0.1" d="M99.568 165.229V262.306H99.5413C98.9822 262.299 98.4479 262.074 98.0525 261.678C97.6572 261.283 97.432 260.749 97.425 260.19V167.345C97.432 166.786 97.6572 166.252 98.0525 165.856C98.4479 165.461 98.9822 165.236 99.5413 165.229H99.568Z" fill="black"/>
<path d="M104.256 170.983H199.35V250.407L104.256 252.55V170.983Z" fill="#D4DFEC"/>
<path opacity="0.1" d="M397.485 164.157H387.306V173.49H397.485V164.157Z" fill="black"/>
<path opacity="0.1" d="M389.004 259.113V262.547L363.733 261.872V259.113H389.004Z" fill="black"/>
<path d="M422.354 167.345V260.19C422.347 260.753 422.118 261.291 421.717 261.688C421.316 262.084 420.775 262.306 420.211 262.306L317.514 259.573C316.965 259.553 316.444 259.322 316.06 258.928C315.676 258.534 315.458 258.007 315.452 257.457V167.345C315.459 166.786 315.684 166.252 316.079 165.856C316.475 165.461 317.009 165.236 317.568 165.229H420.216C420.779 165.23 421.319 165.453 421.719 165.849C422.119 166.245 422.347 166.782 422.354 167.345Z" fill="#65617D"/>
<path opacity="0.1" d="M422.354 167.345V260.19C422.347 260.753 422.118 261.291 421.717 261.688C421.316 262.084 420.775 262.306 420.211 262.306V165.229C420.775 165.229 421.316 165.451 421.717 165.847C422.118 166.243 422.347 166.781 422.354 167.345Z" fill="black"/>
<path d="M415.523 170.983H320.429V250.407L415.523 252.55V170.983Z" fill="#D4DFEC"/>
<path d="M312.794 167.345V257.457C312.788 258.007 312.57 258.534 312.186 258.928C311.802 259.322 311.281 259.553 310.732 259.573L208.056 262.306C207.493 262.306 206.952 262.084 206.55 261.688C206.149 261.291 205.92 260.753 205.913 260.19V167.345C205.92 166.786 206.145 166.252 206.541 165.856C206.936 165.461 207.47 165.236 208.03 165.229H310.678C311.237 165.236 311.771 165.461 312.167 165.856C312.562 166.252 312.787 166.786 312.794 167.345Z" fill="#65617D"/>
<path d="M212.744 170.983H307.839V250.407L212.744 252.55V170.983Z" fill="#D4DFEC"/>
<path opacity="0.1" d="M462.401 285.9V292.865L381.011 293.615L380.143 293.631L349.209 293.915L348.47 293.925L339.067 294.006H338.789L281.475 294.536L187.393 295.409H187.312L163.391 295.634L163.134 295.64L56.8425 296.615V288.579L165.336 287.866H165.593L187.553 287.716H187.655L339.314 286.714H339.469L339.56 286.709H339.812L342.378 286.693H343.16L383.068 286.425L385.425 286.414L385.95 286.409L462.401 285.9Z" fill="black"/>
<path d="M261.047 173.308C276.234 173.308 288.546 160.996 288.546 145.808C288.546 130.62 276.234 118.308 261.047 118.308C245.859 118.308 233.547 130.62 233.547 145.808C233.547 160.996 245.859 173.308 261.047 173.308Z" fill="#FBBEBE"/>
<path d="M288.552 202.061C288.552 202.061 235.245 208.49 240.335 202.061C242.178 199.736 242.687 192.847 242.585 184.998C242.553 182.614 242.467 180.144 242.344 177.685C241.754 165.899 240.335 154.38 240.335 154.38C240.335 154.38 286.944 132.415 281.587 149.826C279.444 156.861 280.146 166.74 281.775 176.013C282.251 178.719 282.803 181.371 283.382 183.889C284.794 190.031 286.519 196.096 288.552 202.061Z" fill="#FBBEBE"/>
<path opacity="0.1" d="M288.552 202.061C288.552 202.061 235.245 208.49 240.335 202.061C242.178 199.736 242.687 192.846 242.585 184.998C250.712 181.526 261.052 184.114 261.052 184.114C271.938 181.944 278.919 182.367 283.382 183.889C284.794 190.031 286.519 196.096 288.552 202.061Z" fill="black"/>
<path d="M187.371 296.015V295.565L281.459 294.541L338.783 294.006H338.944L338.885 294.799L338.965 294.006H339.067V293.915L339.801 286.709L340.08 283.982L340.166 283.13L340.24 282.418L343.551 271.376L346.862 260.35L349.648 251.066L353.902 236.879C353.902 236.879 351.491 231.254 350.152 229.647C348.812 228.04 347.473 217.057 347.473 217.057C347.473 217.057 336.04 206.165 331.042 204.911C328.947 204.376 324.811 203.663 320.418 202.769C318.773 202.436 317.086 202.083 315.462 201.697C314.546 201.488 313.646 201.268 312.784 201.049C311.105 200.629 309.45 200.118 307.828 199.517C306.977 199.208 306.168 198.795 305.417 198.29C301.479 195.402 291.611 195.075 291.231 195.075C291.23 195.063 291.23 195.05 291.231 195.038V194.989C291.244 194.765 291.244 194.539 291.231 194.314C291.231 194.1 291.231 193.848 291.182 193.564C291.182 193.479 291.182 193.388 291.145 193.297C291.118 193.104 291.086 192.9 291.038 192.686C291.022 192.59 291 192.495 290.973 192.402C290.818 191.756 290.594 191.129 290.304 190.532C290.266 190.446 290.218 190.355 290.175 190.27C289.913 189.775 289.608 189.303 289.264 188.861C289.195 188.77 289.12 188.673 289.039 188.582C288.601 188.065 288.113 187.591 287.582 187.168C287.438 187.055 287.288 186.937 287.132 186.83C287.046 186.76 286.954 186.695 286.859 186.637L286.382 186.327L285.937 186.069C285.546 185.855 285.134 185.646 284.684 185.448C284.545 185.384 284.395 185.325 284.245 185.266C284.095 185.207 283.859 185.116 283.661 185.041H283.628L283.227 184.88C282.921 184.778 282.611 184.687 282.284 184.596L281.785 184.467L281.25 184.344L280.714 184.232C280.178 184.125 279.605 184.028 279.005 183.953L278.394 183.878L277.767 183.814L277.119 183.76L276.198 183.707L275.126 183.669C270.401 183.669 265.688 184.17 261.068 185.164C257.859 184.45 254.571 184.147 251.286 184.264H250.819L250.284 184.296H249.941L249.25 184.36C249.019 184.36 248.784 184.409 248.553 184.441C248.323 184.473 248.082 184.5 247.851 184.537L247.498 184.596C247.15 184.655 246.796 184.719 246.426 184.794C246.308 184.816 246.191 184.843 246.073 184.875C245.607 184.976 245.141 185.1 244.68 185.239C244.449 185.303 244.219 185.378 243.989 185.459C243.871 185.491 243.758 185.534 243.646 185.576L243.303 185.7L242.965 185.834L242.564 185.994C242.36 186.08 242.162 186.171 241.964 186.268C241.851 186.316 241.739 186.369 241.631 186.428C241.524 186.487 241.412 186.535 241.31 186.594C240.099 187.22 238.979 188.01 237.983 188.941L237.71 189.203L237.442 189.477C237.351 189.568 237.265 189.664 237.179 189.761C236.83 190.142 236.505 190.545 236.204 190.966C236.119 191.079 236.038 191.191 235.958 191.309C235.618 191.81 235.31 192.333 235.036 192.873C234.967 193.002 234.903 193.136 234.838 193.264C234.401 194.169 234.043 195.111 233.767 196.077C233.667 196.434 233.576 196.791 233.493 197.149C233.493 197.149 222.152 202.152 212.744 205.774C210.242 206.738 207.885 207.612 205.913 208.271C205.34 208.463 204.804 208.64 204.306 208.806C203.225 209.197 202.101 209.456 200.958 209.578C200.419 209.587 199.882 209.637 199.351 209.728C195.027 210.43 187.618 213.478 186.809 216.537C186.743 216.781 186.725 217.036 186.755 217.287C186.755 217.287 186.755 217.325 186.755 217.346C187.291 221.096 183.541 220.561 183.541 220.561C183.541 220.561 182.201 230.472 180.326 233.151C178.971 235.079 178.044 239.381 177.926 242.628C177.859 243.639 177.938 244.655 178.162 245.644C178.162 245.671 178.162 245.698 178.162 245.719C178.376 246.437 177.862 248.398 176.989 250.91C176.04 253.67 174.658 257.098 173.329 260.334C171.326 265.22 169.44 269.656 169.322 270.631C169.274 271.065 169.135 271.842 168.942 272.844C168.16 276.926 166.424 284.7 165.567 287.845C164.929 290.191 164.002 293.406 163.365 295.613C163.365 295.677 163.327 295.742 163.311 295.8L187.328 295.565V296.015H187.403H187.371Z" fill="#6C63FF"/>
<path opacity="0.1" d="M196.136 232.867C196.136 232.867 226.673 248.671 237.656 246.796L196.136 232.867Z" fill="black"/>
<path opacity="0.1" d="M258.282 226.438C258.282 226.438 288.016 236.081 297.927 237.42C307.839 238.76 258.282 226.438 258.282 226.438Z" fill="black"/>
<path opacity="0.1" d="M291.263 195.407C275.726 198.268 246.475 197.652 233.831 197.218C238.465 180.61 261.063 186.257 261.063 186.257C289.034 180.674 291.177 192.257 291.263 195.407Z" fill="black"/>
<path d="M291.263 194.336C275.726 197.197 246.475 196.581 233.831 196.147C238.465 179.539 261.063 185.185 261.063 185.185C289.034 179.603 291.177 191.186 291.263 194.336Z" fill="#6C63FF"/>
<path d="M373.735 267.556C373.735 267.556 392.036 264.743 392.395 272.78C392.754 280.816 383.062 286.43 383.062 286.43L373.735 267.556Z" fill="#FBBEBE"/>
<path opacity="0.1" d="M281.775 176.013C280.988 176.365 280.183 176.676 279.364 176.946C273.588 178.939 267.765 180.948 261.684 181.676C255.604 182.405 249.223 181.762 243.919 178.73C243.362 178.415 242.825 178.066 242.312 177.685C241.722 165.899 240.303 154.38 240.303 154.38C240.303 154.38 286.912 132.415 281.555 149.826C279.423 156.861 280.146 166.74 281.775 176.013Z" fill="black"/>
<path d="M253.503 102.825C252.739 103.027 251.937 103.048 251.164 102.885C250.39 102.722 249.664 102.381 249.046 101.888L250.16 103.436C249.504 103.512 248.838 103.443 248.211 103.235C247.583 103.027 247.009 102.684 246.528 102.231C246.427 103.617 246.484 105.01 246.699 106.383C244.856 106.472 243.04 105.902 241.578 104.776C241.549 105.259 241.669 105.739 241.922 106.152C242.175 106.565 242.549 106.89 242.992 107.085C241.14 106.863 239.27 107.324 237.733 108.379C236.195 109.435 235.093 111.014 234.634 112.822L237.431 113.08C235.233 113.549 233.261 114.753 231.838 116.492C230.981 117.564 230.327 118.935 230.702 120.242C231.077 121.55 232.888 122.385 233.874 121.453C232.471 123.127 231.452 125.087 230.888 127.196C230.323 129.305 230.227 131.513 230.606 133.663C230.86 134.579 230.943 135.534 230.852 136.481C230.675 137.365 230.118 138.131 229.84 138.994C229.304 140.558 229.813 142.256 230.29 143.815L232.802 152.076C233.713 155.06 234.618 158.05 235.808 160.938C236.65 162.763 237.366 164.645 237.951 166.568C238.626 169.161 238.653 172.001 240.094 174.267C241.081 175.693 242.402 176.857 243.94 177.658C249.239 180.69 255.641 181.333 261.706 180.605C267.77 179.876 273.588 177.867 279.358 175.874C280.64 175.488 281.871 174.948 283.023 174.267C287.014 171.652 287.904 166.306 288.648 161.597C289.479 156.346 290.588 151.107 292.554 146.167C293.722 143.226 295.232 140.242 294.975 137.092C294.649 132.907 291.338 129.516 290.518 125.402C290.244 124.026 290.256 122.609 290.555 121.239C290.81 120.423 290.952 119.576 290.979 118.721C290.888 116.996 289.473 115.667 288.145 114.558C285.262 112.151 282.287 109.876 279.219 107.733C279.064 106.661 280.521 106.201 281.18 105.354C282.112 104.159 281.148 102.263 279.733 101.706C278.319 101.149 276.733 101.513 275.26 101.882C275.356 101.128 275.206 100.363 274.832 99.7014C274.459 99.0394 273.881 98.5156 273.186 98.208C272.491 97.9005 271.715 97.8255 270.974 97.9943C270.233 98.1631 269.566 98.5666 269.072 99.1448C268.681 98.2477 268.056 97.4721 267.262 96.8991C266.469 96.3261 265.536 95.9767 264.561 95.8875C261.009 95.6089 260.939 98.3252 258.668 99.8199C256.396 101.315 254.521 99.3431 252.775 97.9073C252.454 98.7189 252.352 99.6007 252.48 100.464C252.608 101.327 252.961 102.142 253.503 102.825Z" fill="#3F3D56"/>
<path d="M387.306 283.628C387.306 283.628 386.829 284.764 385.95 286.409C384.621 288.939 383.003 291.307 381.128 293.465L380.984 293.62H380.116L349.182 293.904H348.443L348.352 293.797L342.351 286.677L340.09 283.993L339.999 283.88L339.807 283.655L339.699 283.527L339.56 283.36L335.162 278.142L336.769 271.446L339.507 260.163L339.576 259.89L340.112 257.747L340.492 256.139L341.767 250.9L346.139 232.872L353.907 236.89L362.099 251.355L366.497 259.123H368.908C369.364 259.123 370.408 260.002 371.458 261.015C371.833 261.374 372.208 261.754 372.53 262.086C373.483 263.072 374.239 263.918 374.239 263.918C374.239 263.918 378.144 264.004 379.194 267.079C379.249 267.228 379.293 267.38 379.328 267.535C379.677 268.743 380.13 269.919 380.684 271.049C381.375 272.555 382.243 274.264 383.121 275.973C384.755 279.107 386.416 282.091 387.027 283.173L387.102 283.307L387.306 283.628Z" fill="#6C63FF"/>
<path opacity="0.1" d="M341.285 259.44L341.232 260.206V260.259L341.14 261.491L340.428 271.408L339.565 283.355L339.319 286.72L338.783 293.92V294.011L281.459 294.547L187.387 295.565V296.015H187.312V295.565V295.415L187.553 287.721L188.014 272.688L188.411 259.943L188.448 258.673C188.471 257.907 188.651 257.153 188.975 256.459C189.3 255.764 189.762 255.143 190.335 254.633C190.908 254.123 191.578 253.735 192.306 253.493C193.033 253.251 193.802 253.16 194.566 253.225C197.095 253.439 200.379 253.702 204.306 253.98L205.913 254.098C228.591 255.673 270.503 257.709 312.794 255.17C313.684 255.121 314.578 255.068 315.473 255.004C322.031 254.591 328.583 254.061 335.071 253.396C335.891 253.31 336.72 253.405 337.499 253.674C338.279 253.944 338.99 254.38 339.582 254.954C340.175 255.527 340.634 256.224 340.928 256.994C341.223 257.765 341.344 258.59 341.285 259.413V259.44Z" fill="black"/>
<path d="M187.371 296.015V295.565L281.459 294.541L338.783 294.006H338.944V293.915L339.48 286.714L339.71 283.5L340.589 271.387L341.28 261.797V261.561C341.312 261.119 341.292 260.675 341.221 260.238C341.224 260.22 341.224 260.202 341.221 260.184C341.074 259.28 340.706 258.426 340.149 257.698C339.559 256.942 338.786 256.348 337.903 255.973C337.02 255.598 336.057 255.454 335.103 255.555C328.615 256.22 322.063 256.75 315.505 257.163C314.61 257.227 313.716 257.28 312.826 257.329C270.535 259.841 228.623 257.805 205.945 256.257L204.338 256.139C200.411 255.861 197.127 255.604 194.598 255.384C193.207 255.267 191.822 255.669 190.71 256.513C189.598 257.357 188.838 258.582 188.577 259.954C188.522 260.244 188.49 260.538 188.48 260.832L188.116 272.705L187.618 287.743L187.382 295.436V295.586V296.036L187.371 296.015Z" fill="#3F3D56"/>
<path opacity="0.1" d="M341.446 263.195L340.787 271.408L339.806 283.65L339.56 286.714L339.024 293.577L338.992 293.92V294.011L338.912 294.804L338.971 294.011H338.815L281.491 294.547L187.387 295.565V295.415L187.65 287.721L188.185 272.688L188.528 262.697C188.545 262.128 188.704 261.573 188.99 261.082C189.277 260.591 189.681 260.179 190.168 259.884C190.774 259.512 191.484 259.343 192.193 259.402C193.318 259.493 194.7 259.6 196.313 259.718C198.932 259.911 202.163 260.136 205.924 260.372C212.889 260.811 221.627 261.282 231.64 261.668C259.498 262.74 297.108 263.099 332.831 259.97C334.438 259.831 336.099 259.675 337.722 259.52C338.365 259.456 339.012 259.579 339.587 259.873C339.75 259.955 339.904 260.051 340.048 260.163C340.514 260.501 340.883 260.955 341.119 261.481C341.174 261.585 341.219 261.695 341.253 261.808C341.414 262.251 341.48 262.724 341.446 263.195Z" fill="black"/>
<path opacity="0.1" d="M159.705 270.529V272.238C159.706 272.86 159.53 273.469 159.198 273.994C158.866 274.519 158.392 274.94 157.83 275.206L136.347 275.619C135.776 275.357 135.292 274.937 134.953 274.408C134.614 273.879 134.434 273.263 134.434 272.635V271.028L159.705 270.529Z" fill="black"/>
<path d="M159.973 276.214L131.98 276.749V272.105L159.973 271.569V276.214Z" fill="#3F3D56"/>
<path opacity="0.1" d="M159.973 276.214L131.98 276.749V272.105L159.973 271.569V276.214Z" fill="black"/>
<path d="M161.045 276.214L133.052 276.749V272.105L161.045 271.569V276.214Z" fill="#3F3D56"/>
<g opacity="0.1">
<path opacity="0.1" d="M253.723 101.069C253.2 100.388 252.852 99.5896 252.711 98.743C252.582 99.5706 252.659 100.417 252.936 101.208C253.202 101.183 253.465 101.137 253.723 101.069Z" fill="black"/>
<path opacity="0.1" d="M246.919 104.626C246.818 103.969 246.752 103.307 246.721 102.643C246.721 103.302 246.721 103.967 246.721 104.631L246.919 104.626Z" fill="black"/>
<path opacity="0.1" d="M290.582 122.504C290.612 122.027 290.676 121.552 290.775 121.084C291.029 120.269 291.173 119.424 291.204 118.571C291.192 118.38 291.163 118.19 291.118 118.003C291.027 118.496 290.882 118.989 290.775 119.477C290.561 120.471 290.496 121.491 290.582 122.504Z" fill="black"/>
<path opacity="0.1" d="M279.439 105.949L280.023 106.373C280.515 106.016 280.976 105.618 281.4 105.183C281.602 104.904 281.727 104.577 281.762 104.235C281.798 103.893 281.743 103.547 281.604 103.233C281.55 103.355 281.482 103.47 281.4 103.575C280.741 104.422 279.283 104.888 279.439 105.949Z" fill="black"/>
<path opacity="0.1" d="M235.417 111.103C235.221 111.493 235.065 111.903 234.951 112.324C235.789 111.856 236.692 111.515 237.63 111.312L235.417 111.103Z" fill="black"/>
<path opacity="0.1" d="M242.805 105.274C242.453 105.08 242.116 104.86 241.798 104.615C241.784 104.827 241.8 105.04 241.846 105.247C242.166 105.232 242.486 105.241 242.805 105.274Z" fill="black"/>
<path opacity="0.1" d="M295.184 136.84C294.965 139.438 293.754 141.94 292.774 144.405C290.807 149.344 289.698 154.584 288.868 159.839C288.123 164.548 287.261 169.895 283.243 172.504C282.095 173.19 280.865 173.73 279.583 174.111C273.808 176.11 267.985 178.114 261.904 178.842C255.823 179.571 249.443 178.933 244.139 175.901C242.601 175.098 241.281 173.935 240.292 172.51C238.862 170.243 238.835 167.404 238.149 164.811C237.564 162.886 236.848 161.002 236.006 159.175C234.822 156.293 233.911 153.282 233.006 150.319C232.167 147.565 231.329 144.81 230.493 142.053C230.218 141.223 230.014 140.372 229.883 139.508C229.674 140.879 230.081 142.315 230.493 143.66C231.329 146.421 232.167 149.176 233.006 151.926C233.911 154.91 234.822 157.9 236.006 160.782C236.848 162.61 237.564 164.493 238.149 166.418C238.824 169.011 238.851 171.851 240.292 174.117C241.281 175.542 242.601 176.706 244.139 177.508C249.443 180.54 255.839 181.178 261.904 180.449C267.969 179.721 273.787 177.717 279.583 175.719C280.865 175.337 282.095 174.797 283.243 174.111C287.234 171.502 288.123 166.156 288.868 161.447C289.698 156.191 290.807 150.951 292.774 146.012C293.941 143.076 295.452 140.092 295.195 136.936C295.195 136.904 295.184 136.872 295.184 136.84Z" fill="black"/>
<path opacity="0.1" d="M231.061 134.767C231.061 134.767 231.061 134.73 231.061 134.708C231.158 133.764 231.074 132.809 230.815 131.895C230.708 131.307 230.638 130.713 230.606 130.116C230.544 131.249 230.614 132.386 230.815 133.503C230.901 133.921 230.997 134.344 231.061 134.767Z" fill="black"/>
<path opacity="0.1" d="M232.695 121.663C233.108 120.97 233.575 120.313 234.094 119.696C233.113 120.634 231.302 119.798 230.922 118.496C230.782 119.023 230.782 119.577 230.922 120.103C231.054 120.497 231.287 120.848 231.599 121.122C231.91 121.396 232.289 121.582 232.695 121.663Z" fill="black"/>
</g>
<path opacity="0.1" d="M366.503 259.118C366.503 259.118 368.201 265.279 366.503 270.637C364.804 275.994 366.503 259.118 366.503 259.118Z" fill="black"/>
<path opacity="0.1" d="M373.735 265.402C373.735 265.402 374.448 273.224 372.84 274.612C371.233 275.999 373.735 265.402 373.735 265.402Z" fill="black"/>
<path d="M106.608 183.685L161.045 183.15" stroke="#6C63FF" stroke-width="2" stroke-miterlimit="10"/>
<path d="M106.608 190.366L161.045 189.836" stroke="#6C63FF" stroke-width="2" stroke-miterlimit="10"/>
<path d="M106.608 197.052L161.045 196.516" stroke="#6C63FF" stroke-width="2" stroke-miterlimit="10"/>
</g>
<defs>
<clipPath id="clip0">
<rect width="557.881" height="296.893" fill="white"/>
</clipPath>
</defs>
</svg>
