<svg width="459" height="266" viewBox="0 0 459 266" fill="none" xmlns="http://www.w3.org/2000/svg">
<path d="M15.3323 14.3737C17.4492 14.3737 19.1652 12.6576 19.1652 10.5407C19.1652 8.42379 17.4492 6.7077 15.3323 6.7077C13.2154 6.7077 11.4993 8.42379 11.4993 10.5407C11.4993 12.6576 13.2154 14.3737 15.3323 14.3737Z" fill="#6C63FF"/>
<path d="M25.8725 14.3737C27.9894 14.3737 29.7055 12.6576 29.7055 10.5407C29.7055 8.42379 27.9894 6.7077 25.8725 6.7077C23.7556 6.7077 22.0396 8.42379 22.0396 10.5407C22.0396 12.6576 23.7556 14.3737 25.8725 14.3737Z" fill="#6C63FF"/>
<path d="M36.4136 14.3737C38.5305 14.3737 40.2465 12.6576 40.2465 10.5407C40.2465 8.42379 38.5305 6.7077 36.4136 6.7077C34.2967 6.7077 32.5806 8.42379 32.5806 10.5407C32.5806 12.6576 34.2967 14.3737 36.4136 14.3737Z" fill="#6C63FF"/>
<path opacity="0.3" d="M125.53 155.114H69.9521V160.863H125.53V155.114Z" fill="#6C63FF"/>
<path opacity="0.3" d="M122.526 167.571H69.9521V173.32H122.526V167.571Z" fill="#6C63FF"/>
<path opacity="0.3" d="M108.256 180.028H69.9521V185.778H108.256V180.028Z" fill="#6C63FF"/>
<g opacity="0.3">
<path opacity="0.3" d="M254.893 155.114H199.315V160.863H254.893V155.114Z" fill="#6C63FF"/>
<path opacity="0.3" d="M251.889 167.571H199.315V173.32H251.889V167.571Z" fill="#6C63FF"/>
<path opacity="0.3" d="M237.619 180.028H199.315V185.778H237.619V180.028Z" fill="#6C63FF"/>
<path opacity="0.3" d="M254.893 155.114H199.315V160.863H254.893V155.114Z" fill="#6C63FF"/>
<path opacity="0.3" d="M251.889 167.571H199.315V173.32H251.889V167.571Z" fill="#6C63FF"/>
<path opacity="0.3" d="M237.619 180.028H199.315V185.778H237.619V180.028Z" fill="#6C63FF"/>
</g>
<path opacity="0.3" d="M389.048 155.114H333.47V160.863H389.048V155.114Z" fill="#6C63FF"/>
<path opacity="0.3" d="M386.044 167.571H333.47V173.32H386.044V167.571Z" fill="#6C63FF"/>
<path opacity="0.3" d="M371.774 180.028H333.47V185.778H371.774V180.028Z" fill="#6C63FF"/>
<path opacity="0.3" d="M133.196 80.3706H62.2859V143.615H133.196V80.3706Z" fill="#6C63FF"/>
<path d="M262.56 80.3706H191.65V143.615H262.56V80.3706Z" fill="#3F3D56"/>
<path d="M396.714 80.3706H325.803V143.615H396.714V80.3706Z" fill="#3F3D56"/>
<path d="M217.866 143.349L216.93 143.331C216.951 142.295 217.535 117.878 227.147 111.13L227.685 111.895C218.46 118.372 217.871 143.1 217.866 143.349Z" fill="#6C63FF"/>
<path d="M232.093 110.821C234.677 110.821 236.771 108.727 236.771 106.144C236.771 103.56 234.677 101.466 232.093 101.466C229.51 101.466 227.416 103.56 227.416 106.144C227.416 108.727 229.51 110.821 232.093 110.821Z" fill="#6C63FF"/>
<path d="M231.148 122.66C228.715 123.424 226.124 123.536 223.634 122.984C225.215 120.971 227.344 119.458 229.765 118.628C232.186 117.798 234.795 117.685 237.279 118.304C235.652 120.267 233.538 121.769 231.148 122.66V122.66Z" fill="#6C63FF"/>
<path d="M352.02 143.349L351.085 143.331C351.105 142.295 351.69 117.878 361.302 111.13L361.839 111.895C352.615 118.372 352.025 143.1 352.02 143.349Z" fill="#6C63FF"/>
<path d="M366.248 110.821C368.831 110.821 370.925 108.727 370.925 106.144C370.925 103.56 368.831 101.466 366.248 101.466C363.664 101.466 361.57 103.56 361.57 106.144C361.57 108.727 363.664 110.821 366.248 110.821Z" fill="#6C63FF"/>
<path d="M365.302 122.66C362.869 123.424 360.278 123.536 357.788 122.984C359.369 120.971 361.498 119.458 363.919 118.628C366.34 117.798 368.95 117.685 371.433 118.304C369.806 120.267 367.692 121.769 365.302 122.66V122.66Z" fill="#6C63FF"/>
<path d="M459 265.434H0V0H459V265.434ZM1.91649 263.518H457.083V1.91649H1.91649V263.518Z" fill="#2F2E41"/>
<path d="M458.042 19.2272H0.958252V21.1437H458.042V19.2272Z" fill="#2F2E41"/>
</svg>
