<svg width="13" height="15" viewBox="0 0 13 15" fill="none" xmlns="http://www.w3.org/2000/svg">
<path d="M7.14578 15C9.34412 15 11.3602 13.9511 12.6962 12.2234C13.4853 11.2029 12.6248 9.712 11.4052 9.95578C9.1066 10.4152 6.98732 8.57098 6.98732 6.12398C6.98732 4.70531 7.71474 3.42012 8.86962 2.73035C9.95112 2.08436 9.67907 0.363516 8.45031 0.125303C8.02 0.042016 7.58335 7.4892e-05 7.14578 0C3.19997 0 0 3.35669 0 7.5C0 11.6414 3.19818 15 7.14578 15ZM7.14578 1.40625C7.50824 1.40625 7.86285 1.44144 8.20693 1.50814C6.6784 2.42112 5.64749 4.14609 5.64749 6.12398C5.64749 9.45938 8.54044 11.9599 11.6559 11.3372C10.5914 12.7138 8.96659 13.5938 7.14578 13.5938C3.93925 13.5938 1.33983 10.8655 1.33983 7.5C1.33983 4.13452 3.93925 1.40625 7.14578 1.40625Z" fill="#333333"/>
</svg>
