<svg width="16" height="15" viewBox="0 0 16 15" fill="none" xmlns="http://www.w3.org/2000/svg">
<path d="M14.4785 6.5011L12.7266 5.31457L13.1279 3.2345C13.2041 2.84778 13.0811 2.44934 12.8027 2.16809C12.5215 1.88977 12.123 1.76672 11.7422 1.8429L9.66504 2.24426L8.48145 0.48938C8.03906 -0.16394 6.96094 -0.16394 6.51855 0.48938L5.33496 2.24426L3.26074 1.8429C2.87109 1.76965 2.47559 1.88977 2.19727 2.17102C1.91895 2.45227 1.7959 2.84778 1.87207 3.2345L2.27344 5.31457L0.521484 6.5011C0.193359 6.72375 0 7.08996 0 7.48547C0 7.88098 0.196289 8.24719 0.521484 8.46692L2.27344 9.65344L1.87207 11.7335C1.7959 12.1202 1.91895 12.5187 2.19727 12.797C2.47559 13.0753 2.86816 13.1984 3.26074 13.1222L5.33496 12.7208L6.51855 14.4757C6.73828 14.8038 7.10742 15.0001 7.5 15.0001C7.89258 15.0001 8.26172 14.8038 8.48145 14.4786L9.66504 12.7238L11.7422 13.1251C12.1348 13.2042 12.5273 13.0782 12.8057 12.7999C13.084 12.5216 13.2041 12.1232 13.1309 11.7364L12.7295 9.65637L14.4814 8.46985C14.8066 8.25012 15.0029 7.88098 15.0029 7.4884C15 7.08996 14.8066 6.72375 14.4785 6.5011V6.5011ZM11.1709 9.00891L11.6865 11.6808L9.02051 11.1652L7.5 13.4181L5.97949 11.1622L3.31641 11.6779L3.83203 9.00598L1.58203 7.48254L3.83203 5.95911L3.31641 3.28723L5.98242 3.80286L7.5 1.55286L9.02051 3.80579L11.6865 3.29016L11.1709 5.95911L13.4209 7.48254L11.1709 9.00891ZM7.5 4.45325C5.82129 4.45325 4.45312 5.82141 4.45312 7.50012C4.45312 9.17883 5.82129 10.547 7.5 10.547C9.17871 10.547 10.5469 9.17883 10.5469 7.50012C10.5469 5.82141 9.17871 4.45325 7.5 4.45325ZM7.5 9.14075C6.59473 9.14075 5.85938 8.40539 5.85938 7.50012C5.85938 6.59485 6.59473 5.8595 7.5 5.8595C8.40527 5.8595 9.14062 6.59485 9.14062 7.50012C9.14062 8.40539 8.40527 9.14075 7.5 9.14075Z" fill="white"/>
</svg>
