<svg width="13" height="13" viewBox="0 0 13 13" fill="none" xmlns="http://www.w3.org/2000/svg">
<path d="M13 8.99932C11.7406 9.56899 10.3374 9.74136 8.97756 9.49347C7.61769 9.24558 6.36564 8.5892 5.38822 7.61178C4.4108 6.63436 3.75442 5.38231 3.50653 4.02244C3.25864 2.66256 3.43101 1.25944 4.00068 0C2.99802 0.453121 2.12025 1.14272 1.44268 2.00964C0.765113 2.87656 0.307969 3.89491 0.110471 4.97733C-0.0870279 6.05975 -0.0189857 7.17393 0.30876 8.22428C0.636505 9.27462 1.21417 10.2298 1.99219 11.0078C2.77022 11.7858 3.72538 12.3635 4.77572 12.6912C5.82607 13.019 6.94025 13.087 8.02267 12.8895C9.10509 12.692 10.1234 12.2349 10.9904 11.5573C11.8573 10.8798 12.5469 10.002 13 8.99932V8.99932Z" fill="black"/>
</svg>
