<svg width="13" height="13" viewBox="0 0 13 13" fill="none" xmlns="http://www.w3.org/2000/svg">
<path fill-rule="evenodd" clip-rule="evenodd" d="M6.5 0C6.71549 0 6.92215 0.0856024 7.07452 0.237976C7.2269 0.390349 7.3125 0.597012 7.3125 0.8125V1.625C7.3125 1.84049 7.2269 2.04715 7.07452 2.19952C6.92215 2.3519 6.71549 2.4375 6.5 2.4375C6.28451 2.4375 6.07785 2.3519 5.92548 2.19952C5.7731 2.04715 5.6875 1.84049 5.6875 1.625V0.8125C5.6875 0.597012 5.7731 0.390349 5.92548 0.237976C6.07785 0.0856024 6.28451 0 6.5 0V0ZM9.75 6.5C9.75 7.36195 9.40759 8.1886 8.7981 8.7981C8.1886 9.40759 7.36195 9.75 6.5 9.75C5.63805 9.75 4.8114 9.40759 4.2019 8.7981C3.59241 8.1886 3.25 7.36195 3.25 6.5C3.25 5.63805 3.59241 4.8114 4.2019 4.2019C4.8114 3.59241 5.63805 3.25 6.5 3.25C7.36195 3.25 8.1886 3.59241 8.7981 4.2019C9.40759 4.8114 9.75 5.63805 9.75 6.5V6.5ZM9.373 10.5219L9.94744 11.0963C10.1007 11.2443 10.3059 11.3262 10.519 11.3244C10.732 11.3225 10.9358 11.2371 11.0864 11.0864C11.2371 10.9358 11.3225 10.732 11.3244 10.519C11.3262 10.3059 11.2443 10.1007 11.0963 9.94744L10.5219 9.373C10.3686 9.225 10.1634 9.1431 9.95036 9.14495C9.73733 9.1468 9.53354 9.23225 9.3829 9.3829C9.23225 9.53354 9.1468 9.73733 9.14495 9.95036C9.1431 10.1634 9.225 10.3686 9.373 10.5219V10.5219ZM11.0955 1.90369C11.2478 2.05605 11.3334 2.26268 11.3334 2.47813C11.3334 2.69357 11.2478 2.9002 11.0955 3.05256L10.5219 3.627C10.4469 3.7046 10.3573 3.7665 10.2581 3.80908C10.159 3.85166 10.0524 3.87408 9.94451 3.87502C9.83663 3.87595 9.72964 3.8554 9.62979 3.81454C9.52993 3.77369 9.43922 3.71336 9.36293 3.63707C9.28664 3.56078 9.22631 3.47007 9.18546 3.37021C9.1446 3.27036 9.12405 3.16337 9.12498 3.05549C9.12592 2.9476 9.14834 2.84099 9.19092 2.74186C9.2335 2.64273 9.2954 2.55308 9.373 2.47813L9.94744 1.90369C10.0998 1.75137 10.3064 1.6658 10.5219 1.6658C10.7373 1.6658 10.9439 1.75137 11.0963 1.90369H11.0955ZM12.1875 7.3125C12.403 7.3125 12.6097 7.2269 12.762 7.07452C12.9144 6.92215 13 6.71549 13 6.5C13 6.28451 12.9144 6.07785 12.762 5.92548C12.6097 5.7731 12.403 5.6875 12.1875 5.6875H11.375C11.1595 5.6875 10.9528 5.7731 10.8005 5.92548C10.6481 6.07785 10.5625 6.28451 10.5625 6.5C10.5625 6.71549 10.6481 6.92215 10.8005 7.07452C10.9528 7.2269 11.1595 7.3125 11.375 7.3125H12.1875ZM6.5 10.5625C6.71549 10.5625 6.92215 10.6481 7.07452 10.8005C7.2269 10.9528 7.3125 11.1595 7.3125 11.375V12.1875C7.3125 12.403 7.2269 12.6097 7.07452 12.762C6.92215 12.9144 6.71549 13 6.5 13C6.28451 13 6.07785 12.9144 5.92548 12.762C5.7731 12.6097 5.6875 12.403 5.6875 12.1875V11.375C5.6875 11.1595 5.7731 10.9528 5.92548 10.8005C6.07785 10.6481 6.28451 10.5625 6.5 10.5625V10.5625ZM2.47813 3.627C2.55356 3.70249 2.64313 3.76238 2.74171 3.80326C2.84029 3.84413 2.94596 3.86519 3.05268 3.86523C3.1594 3.86526 3.26509 3.84428 3.3637 3.80348C3.46231 3.76267 3.55192 3.70284 3.62741 3.62741C3.7029 3.55197 3.76279 3.4624 3.80366 3.36382C3.84454 3.26524 3.8656 3.15957 3.86563 3.05285C3.86567 2.94613 3.84469 2.84045 3.80388 2.74183C3.76308 2.64322 3.70325 2.55361 3.62781 2.47813L3.05256 1.90369C2.89932 1.75568 2.69408 1.67379 2.48105 1.67564C2.26801 1.67749 2.06423 1.76294 1.91358 1.91358C1.76294 2.06423 1.67749 2.26801 1.67564 2.48105C1.67379 2.69408 1.75568 2.89932 1.90369 3.05256L2.47813 3.627V3.627ZM3.627 10.5219L3.05256 11.0963C2.89932 11.2443 2.69408 11.3262 2.48105 11.3244C2.26801 11.3225 2.06423 11.2371 1.91358 11.0864C1.76294 10.9358 1.67749 10.732 1.67564 10.519C1.67379 10.3059 1.75568 10.1007 1.90369 9.94744L2.47813 9.373C2.63136 9.225 2.8366 9.1431 3.04964 9.14495C3.26267 9.1468 3.46646 9.23225 3.6171 9.3829C3.76775 9.53354 3.8532 9.73733 3.85505 9.95036C3.8569 10.1634 3.775 10.3686 3.627 10.5219V10.5219ZM1.625 7.3125C1.84049 7.3125 2.04715 7.2269 2.19952 7.07452C2.3519 6.92215 2.4375 6.71549 2.4375 6.5C2.4375 6.28451 2.3519 6.07785 2.19952 5.92548C2.04715 5.7731 1.84049 5.6875 1.625 5.6875H0.8125C0.597012 5.6875 0.390349 5.7731 0.237976 5.92548C0.0856024 6.07785 0 6.28451 0 6.5C0 6.71549 0.0856024 6.92215 0.237976 7.07452C0.390349 7.2269 0.597012 7.3125 0.8125 7.3125H1.625Z" fill="white"/>
</svg>
