<svg width="25" height="26" viewBox="0 0 25 26" fill="none" xmlns="http://www.w3.org/2000/svg">
<path d="M24.5256 8.16153L13.0998 0.650228C12.7098 0.413574 12.2936 0.411407 11.9001 0.650228L0.474315 8.16153C0.181347 8.35408 0 8.69806 0 9.04195V16.5532C0 16.8971 0.181347 17.2411 0.474364 17.4337L11.9001 24.946C12.2901 25.1827 12.7063 25.1848 13.0999 24.946L24.5256 17.4337C24.8186 17.2411 25 16.8971 25 16.5532V9.04195C25 8.69806 24.8186 8.35408 24.5256 8.16153ZM13.5742 3.5116L21.9866 9.04195L18.2338 11.5182L13.5742 8.45038V3.5116ZM11.4258 3.5116V8.45038L6.76615 11.5182L3.01337 9.04195L11.4258 3.5116ZM2.14843 11.023L4.84096 12.7976L2.14843 14.5722V11.023ZM11.4258 22.0836L3.01337 16.5533L6.76615 14.077L11.4258 17.1448V22.0836ZM12.5 15.3014L8.70531 12.7976L12.5 10.2938L16.2946 12.7976L12.5 15.3014ZM13.5742 22.0836V17.1448L18.2338 14.077L21.9866 16.5533L13.5742 22.0836ZM22.8515 14.5722L20.159 12.7976L22.8515 11.023V14.5722Z" fill="white"/>
</svg>
