<svg width="30" height="30" viewBox="0 0 30 30" fill="none" xmlns="http://www.w3.org/2000/svg">
<circle cx="15" cy="15" r="15" fill="#2F80ED" fill-opacity="0.75"/>
<path d="M21.3359 11.7035C21.125 11.6328 20.9141 11.566 20.7031 11.5031C20.7383 11.3578 20.7695 11.2124 20.8008 11.0671C21.2812 8.72579 20.9648 6.84411 19.8984 6.22343C18.8711 5.63024 17.1953 6.247 15.5 7.73192C15.332 7.87727 15.168 8.03047 15.0117 8.18368C14.9062 8.08154 14.7969 7.9794 14.6875 7.88119C12.9102 6.29414 11.1289 5.62631 10.0625 6.25092C9.03906 6.84803 8.73438 8.61973 9.16406 10.8353C9.20703 11.0553 9.25391 11.2714 9.30859 11.4914C9.05859 11.5621 8.8125 11.6406 8.58203 11.7231C6.49609 12.4499 5 13.597 5 14.7833C5 16.009 6.59375 17.2386 8.76172 17.9849C8.9375 18.0439 9.11328 18.1028 9.29297 18.1539C9.23438 18.3896 9.18359 18.6213 9.13672 18.861C8.72656 21.0412 9.04688 22.7697 10.0703 23.3629C11.125 23.9757 12.8984 23.3472 14.625 21.8269C14.7617 21.7051 14.8984 21.5794 15.0352 21.4458C15.207 21.6147 15.3867 21.7758 15.5664 21.9329C17.2383 23.3786 18.8906 23.9639 19.9102 23.3707C20.9648 22.7579 21.3086 20.8998 20.8633 18.637C20.8281 18.4642 20.7891 18.2874 20.7461 18.1067C20.8711 18.0714 20.9922 18.0321 21.1133 17.9928C23.3672 17.2425 25 16.0286 25 14.7833C25 13.593 23.4609 12.4381 21.3359 11.7035ZM16.0508 8.36831C17.5039 7.09552 18.8594 6.59662 19.4766 6.9541C20.1367 7.33515 20.3906 8.87507 19.9766 10.8982C19.9492 11.0317 19.9219 11.1614 19.8867 11.291C19.0195 11.0946 18.1406 10.9532 17.2578 10.8746C16.75 10.1439 16.1953 9.44468 15.5938 8.78865C15.7461 8.6433 15.8945 8.5058 16.0508 8.36831ZM10.9727 15.7968C11.1523 16.1425 11.3359 16.4843 11.5312 16.8221C11.7305 17.1639 11.9336 17.5057 12.1484 17.8396C11.5391 17.7728 10.9336 17.6746 10.3359 17.545C10.5078 16.9793 10.7227 16.394 10.9727 15.7968ZM10.9727 13.8091C10.7266 13.2238 10.5195 12.6502 10.3477 12.0963C10.9102 11.9706 11.5078 11.8685 12.1289 11.7899C11.9219 12.116 11.7188 12.4499 11.5273 12.7877C11.3359 13.1216 11.1484 13.4634 10.9727 13.8091ZM11.418 14.803C11.6758 14.2609 11.957 13.7305 12.2539 13.2081C12.5508 12.6856 12.8711 12.1788 13.207 11.6799C13.793 11.6367 14.3906 11.6131 15 11.6131C15.6094 11.6131 16.2109 11.6367 16.793 11.6799C17.125 12.1749 17.4414 12.6817 17.7422 13.2002C18.043 13.7187 18.3242 14.2491 18.5898 14.7873C18.3281 15.3294 18.0469 15.8636 17.7461 16.39C17.4492 16.9125 17.1328 17.4193 16.8008 17.9221C16.2188 17.9653 15.6133 17.9849 15 17.9849C14.3867 17.9849 13.793 17.9653 13.2188 17.9299C12.8789 17.431 12.5586 16.9204 12.2578 16.3979C11.957 15.8754 11.6797 15.3451 11.418 14.803ZM18.4727 16.8143C18.6719 16.4686 18.8594 16.119 19.043 15.7654C19.293 16.335 19.5117 16.9125 19.7031 17.5057C19.0977 17.6432 18.4844 17.7492 17.8672 17.8199C18.0781 17.49 18.2773 17.1521 18.4727 16.8143ZM19.0352 13.8091C18.8516 13.4634 18.6641 13.1177 18.4688 12.7799C18.2773 12.446 18.0781 12.116 17.8711 11.7899C18.5 11.8685 19.1016 11.9745 19.6641 12.1042C19.4844 12.6856 19.2734 13.2513 19.0352 13.8091ZM15.0078 9.38969C15.418 9.83752 15.8047 10.3089 16.1641 10.796C15.3906 10.7607 14.6133 10.7607 13.8398 10.796C14.2227 10.2893 14.6172 9.81788 15.0078 9.38969ZM10.4766 6.9816C11.1328 6.59662 12.5898 7.14659 14.125 8.51366C14.2227 8.60008 14.3203 8.69437 14.4219 8.78865C13.8164 9.44468 13.2578 10.1439 12.7461 10.8746C11.8633 10.9532 10.9883 11.0907 10.1211 11.2832C10.0703 11.0828 10.0273 10.8785 9.98438 10.6743C9.61719 8.77293 9.85938 7.33908 10.4766 6.9816ZM9.51953 17.3368C9.35547 17.2896 9.19531 17.2386 9.03516 17.1836C8.20313 16.9204 7.25781 16.5039 6.57422 15.9579C6.17969 15.6829 5.91406 15.2587 5.83984 14.7833C5.83984 14.0644 7.07422 13.1452 8.85547 12.5206C9.07812 12.442 9.30469 12.3713 9.53125 12.3045C9.79688 13.157 10.1172 13.9937 10.4883 14.803C10.1133 15.624 9.78906 16.4725 9.51953 17.3368ZM14.0742 21.1866C13.4297 21.7797 12.6836 22.2511 11.8711 22.5733C11.4375 22.7815 10.9375 22.8011 10.4922 22.6243C9.87109 22.2629 9.61328 20.8762 9.96484 19.0102C10.0078 18.7903 10.0547 18.5703 10.1094 18.3542C10.9844 18.5428 11.8672 18.6724 12.7617 18.7392C13.2773 19.4738 13.8438 20.177 14.4492 20.8369C14.3242 20.9587 14.1992 21.0766 14.0742 21.1866ZM15.0312 20.232C14.6328 19.7998 14.2344 19.3206 13.8477 18.806C14.2227 18.8217 14.6094 18.8295 15 18.8295C15.4023 18.8295 15.7969 18.8217 16.1875 18.802C15.8281 19.3009 15.4414 19.7763 15.0312 20.232ZM20.1367 21.4105C20.1016 21.8897 19.8672 22.3376 19.4922 22.64C18.8711 23.0015 17.5469 22.5301 16.1172 21.2965C15.9531 21.1551 15.7891 21.0019 15.6211 20.8448C16.2188 20.1809 16.7695 19.4777 17.2695 18.7392C18.1641 18.6645 19.0547 18.5271 19.9336 18.3267C19.9727 18.4878 20.0078 18.6488 20.0391 18.806C20.2305 19.6545 20.2617 20.5384 20.1367 21.4105ZM20.8477 17.1875C20.7383 17.2228 20.6289 17.2582 20.5156 17.2896C20.2422 16.4332 19.9062 15.5965 19.5195 14.7833C19.8945 13.9819 20.2109 13.157 20.4766 12.3124C20.6797 12.3713 20.875 12.4342 21.0625 12.497C22.8828 13.1256 24.1602 14.0605 24.1602 14.7755C24.1602 15.5454 22.7969 16.5393 20.8477 17.1875ZM15 12.9998C15.9883 12.9998 16.7891 13.8052 16.7891 14.799C16.7891 15.7929 15.9883 16.5982 15 16.5982C14.0117 16.5982 13.2109 15.7929 13.2109 14.799C13.2109 13.8052 14.0117 12.9998 15 12.9998Z" fill="white"/>
</svg>
