<svg width="20" height="27" viewBox="0 0 20 27" fill="none" xmlns="http://www.w3.org/2000/svg">
<path d="M19.2656 5.10417L14.8958 0.734375C14.4271 0.265625 13.7917 0 13.1302 0H2.5C1.11979 0.00520833 0 1.125 0 2.50521V24.1719C0 25.5521 1.11979 26.6719 2.5 26.6719H17.5C18.8802 26.6719 20 25.5521 20 24.1719V6.875C20 6.21354 19.7344 5.57292 19.2656 5.10417ZM17.2969 6.67188H13.3333V2.70833L17.2969 6.67188ZM2.5 24.1719V2.50521H10.8333V7.92188C10.8333 8.61458 11.3906 9.17188 12.0833 9.17188H17.5V24.1719H2.5ZM15.5312 16.6875C14.8958 16.0625 13.0833 16.2344 12.1771 16.349C11.2812 15.8021 10.6823 15.0469 10.2604 13.9375C10.4635 13.099 10.7865 11.8229 10.5417 11.0208C10.3229 9.65625 8.57292 9.79167 8.32292 10.7135C8.09375 11.5521 8.30208 12.7188 8.6875 14.2083C8.16667 15.4531 7.39062 17.125 6.84375 18.0833C5.80208 18.6198 4.39583 19.4479 4.1875 20.4896C4.01562 21.3125 5.54167 23.3646 8.15104 18.8646C9.31771 18.4792 10.5885 18.0052 11.7135 17.8177C12.6979 18.349 13.849 18.7031 14.6198 18.7031C15.9479 18.7031 16.0781 17.2344 15.5312 16.6875ZM5.21354 20.7396C5.47917 20.026 6.48958 19.2031 6.79688 18.9167C5.80729 20.4948 5.21354 20.776 5.21354 20.7396ZM9.46354 10.8125C9.84896 10.8125 9.8125 12.4844 9.55729 12.9375C9.32812 12.2135 9.33333 10.8125 9.46354 10.8125ZM8.19271 17.9271C8.69792 17.0469 9.13021 16 9.47917 15.0781C9.91146 15.8646 10.4635 16.4948 11.0469 16.9271C9.96354 17.151 9.02083 17.6094 8.19271 17.9271ZM15.0469 17.6667C15.0469 17.6667 14.7865 17.9792 13.1042 17.2604C14.9323 17.125 15.2344 17.5417 15.0469 17.6667Z" fill="#2F80ED"/>
</svg>
