<svg width="415" height="374" viewBox="0 0 415 374" fill="none" xmlns="http://www.w3.org/2000/svg">
<path d="M226.836 328.434L226.804 328.44C225.421 328.699 224.302 329.484 223.45 330.466C223.27 330.648 223.049 330.788 222.907 330.995C222.12 332.145 221.798 333.586 221.96 335.067C221.977 335.245 221.922 335.387 221.954 335.561C222.091 336.292 222.397 336.958 222.773 337.561C222.892 337.752 223.023 337.925 223.154 338.097C223.457 338.484 223.801 338.831 224.188 339.136C224.379 339.281 224.539 339.432 224.744 339.558C225.32 339.91 225.915 340.192 226.57 340.349C227.379 340.542 228.225 340.581 229.084 340.42C231.753 339.919 233.613 337.73 233.939 335.171C234.041 334.577 234.077 333.978 233.958 333.343C233.955 333.327 233.971 333.324 233.968 333.308C233.346 329.99 230.157 327.811 226.836 328.434ZM300.771 237.181C300.154 237.051 299.485 237.078 298.809 237.155C298.694 237.16 298.59 237.13 298.463 237.154L298.431 237.16C295.126 237.78 292.959 240.964 293.579 244.266C293.73 245.075 294.032 245.808 294.465 246.449C294.761 246.887 295.156 247.24 295.552 247.593C295.708 247.728 295.824 247.904 295.993 248.02C297.178 248.899 298.683 249.29 300.248 249.128L300.264 249.125C300.426 249.111 300.565 249.151 300.708 249.124C304.029 248.501 306.211 245.315 305.592 242.013C305.119 239.488 303.147 237.656 300.771 237.181ZM62.9837 164.522L62.952 164.528C59.6308 165.151 57.4802 168.332 58.1025 171.65C58.7217 174.952 61.9263 177.128 65.2316 176.508C68.5369 175.888 70.7193 172.702 70.1 169.4C69.4777 166.082 66.289 163.903 62.9837 164.522ZM91.197 314.957L91.1652 314.963C87.844 315.586 85.6935 318.767 86.3127 322.069C86.932 325.371 90.1366 327.547 93.4419 326.927C96.7472 326.307 98.9296 323.121 98.3103 319.819C97.691 316.517 94.5023 314.337 91.197 314.957ZM115.142 206.079C118.464 205.457 120.63 202.273 120.011 198.971C119.389 195.653 116.216 193.471 112.895 194.094L112.863 194.099C109.557 194.719 107.391 197.903 108.013 201.221C108.633 204.523 111.837 206.699 115.142 206.079ZM55.9334 126.93L55.9016 126.936C52.5805 127.558 50.4269 130.723 51.0491 134.041C51.6684 137.343 54.873 139.52 58.1783 138.9C61.4836 138.28 63.666 135.093 63.0467 131.791C62.4244 128.473 59.2387 126.31 55.9334 126.93ZM77.0904 239.74L77.0586 239.746C73.7374 240.369 71.5868 243.549 72.2061 246.851C72.8284 250.169 76.033 252.346 79.3383 251.726C82.6436 251.106 84.8259 247.919 84.2037 244.601C83.5844 241.299 80.3957 239.12 77.0904 239.74ZM84.1437 277.349L84.1119 277.355C80.7907 277.977 78.6401 281.158 79.2594 284.46C79.8817 287.778 83.0863 289.954 86.3916 289.334C89.6969 288.715 91.8792 285.528 91.257 282.21C90.6377 278.908 87.449 276.729 84.1437 277.349ZM101.036 130.862C104.357 130.239 106.523 127.056 105.904 123.753C105.282 120.435 102.112 118.269 98.7909 118.892L98.7591 118.898C95.4538 119.518 93.2844 122.686 93.9066 126.004C94.5259 129.306 97.7305 131.482 101.036 130.862ZM108.089 168.471C111.41 167.848 113.577 164.664 112.957 161.362C112.335 158.044 109.162 155.862 105.841 156.485L105.809 156.491C102.504 157.111 100.338 160.294 100.96 163.612C101.579 166.914 104.784 169.091 108.089 168.471ZM93.9825 93.2533C97.3037 92.6304 99.4702 89.4468 98.8509 86.1447C98.2316 82.8426 95.0588 80.6604 91.7376 81.2833L91.7058 81.2892C88.4005 81.9091 86.234 85.0927 86.8533 88.3948C87.4726 91.6969 90.6772 93.8732 93.9825 93.2533ZM70.0371 202.131L70.0053 202.137C66.6841 202.76 64.5335 205.941 65.1558 209.259C65.7751 212.561 68.9797 214.737 72.285 214.117C75.5902 213.497 77.7726 210.311 77.1533 207.009C76.5311 203.691 73.3423 201.511 70.0371 202.131ZM34.217 247.781L34.1852 247.787C30.8799 248.406 28.7134 251.59 29.3327 254.892C29.955 258.21 33.1596 260.386 36.4649 259.766C39.7861 259.144 41.9684 255.957 41.3462 252.639C40.7269 249.337 37.5382 247.158 34.217 247.781ZM27.1637 210.172L27.1319 210.178C23.8266 210.798 21.6601 213.981 22.2824 217.299C22.9017 220.601 26.1063 222.778 29.4116 222.158C32.7328 221.535 34.9151 218.348 34.2958 215.046C33.6736 211.728 30.4849 209.549 27.1637 210.172ZM41.2703 285.389L41.2385 285.395C40.4917 285.535 39.8222 285.825 39.2054 286.22C38.8956 286.41 38.6611 286.651 38.3949 286.898C38.1705 287.105 37.943 287.295 37.7563 287.527C37.4215 287.935 37.1722 288.36 36.9636 288.826C36.9179 288.934 36.8692 289.025 36.8364 289.113C36.598 289.684 36.4608 290.268 36.4121 290.885C36.3643 291.42 36.2818 291.945 36.386 292.501C36.8297 294.866 38.6161 296.585 40.7871 297.197C41.6531 297.429 42.5618 297.538 43.4993 297.362L43.5182 297.375C46.8394 296.752 49.0218 293.566 48.3995 290.248C48.2447 289.422 47.921 288.661 47.4851 288.003C46.1774 286.03 43.7652 284.921 41.2703 285.389ZM241.499 169.974L241.467 169.98C238.146 170.603 235.979 173.787 236.602 177.105C237.221 180.407 240.425 182.583 243.747 181.96C247.052 181.34 249.234 178.154 248.615 174.852C247.993 171.534 244.804 169.355 241.499 169.974ZM20.1104 172.563L20.0786 172.569C19.3953 172.697 18.8053 172.972 18.2461 173.324C17.7386 173.6 17.3314 173.972 16.933 174.392L16.9172 174.395C15.5941 175.76 14.848 177.659 15.2291 179.691C15.2767 179.945 15.4296 180.146 15.5061 180.378L15.5091 180.394C15.9896 181.816 16.8822 182.98 18.1067 183.719C18.2576 183.823 18.4632 183.866 18.6271 183.951C19.0968 184.175 19.5536 184.418 20.0661 184.519C20.8 184.661 21.5796 184.695 22.3583 184.549C24.8531 184.081 26.6996 182.174 27.2035 179.861C27.3684 179.074 27.3974 178.263 27.2425 177.438C27.0847 176.596 26.764 175.851 26.3281 175.193C25.0174 173.204 22.6052 172.095 20.1104 172.563ZM248.552 207.583L248.52 207.589C245.199 208.212 243.033 211.396 243.652 214.698C244.274 218.016 247.479 220.192 250.8 219.569C254.105 218.949 256.288 215.763 255.665 212.445C255.046 209.143 251.857 206.963 248.552 207.583ZM234.445 132.366L234.414 132.372C231.093 132.995 228.926 136.178 229.548 139.496C230.168 142.798 233.372 144.975 236.693 144.352C239.999 143.732 242.181 140.545 241.562 137.243C240.939 133.925 237.751 131.746 234.445 132.366ZM262.659 282.801L262.627 282.807C259.306 283.429 257.139 286.613 257.759 289.915C258.378 293.217 261.582 295.393 264.904 294.771C268.209 294.151 270.391 290.964 269.772 287.662C269.153 284.36 265.964 282.181 262.659 282.801ZM255.605 245.192L255.574 245.198C252.252 245.821 250.086 249.004 250.705 252.306C251.328 255.624 254.532 257.801 257.853 257.178C261.159 256.558 263.341 253.371 262.719 250.053C262.099 246.751 258.911 244.572 255.605 245.192ZM179.713 77.1749C183.035 76.552 185.217 73.3654 184.598 70.0634L184.582 70.0664C184.397 69.0821 183.947 68.2626 183.382 67.5304C183.336 67.457 183.26 67.4054 183.217 67.3479C182.626 66.6534 181.919 66.1287 181.108 65.7548L181.092 65.7578C179.992 65.2411 178.756 64.9635 177.468 65.2049L177.437 65.2109C174.131 65.8307 171.965 69.0144 172.584 72.3164C173.203 75.6185 176.408 77.7948 179.713 77.1749ZM227.395 94.7729L227.363 94.7789C224.042 95.4018 221.873 98.5695 222.495 101.887C223.114 105.19 226.319 107.366 229.64 106.743C232.945 106.123 235.128 102.936 234.508 99.6344C233.886 96.3164 230.7 94.153 227.395 94.7729ZM191.572 140.406L191.54 140.412C188.235 141.032 186.069 144.216 186.691 147.534C187.31 150.836 190.515 153.012 193.82 152.392C197.141 151.769 199.324 148.583 198.704 145.281C198.082 141.963 194.893 139.784 191.572 140.406ZM212.732 253.233L212.7 253.239C209.395 253.858 207.228 257.042 207.848 260.344C208.47 263.662 211.675 265.838 214.98 265.218C218.301 264.596 220.483 261.409 219.861 258.091C219.242 254.789 216.053 252.61 212.732 253.233ZM205.679 215.624L205.647 215.63C202.342 216.25 200.175 219.433 200.794 222.735C201.417 226.053 204.621 228.23 207.927 227.61C211.248 226.987 213.43 223.8 212.808 220.482C212.189 217.18 209 215.001 205.679 215.624ZM198.625 178.015L198.594 178.021C195.288 178.641 193.122 181.825 193.744 185.143C194.363 188.445 197.568 190.621 200.873 190.001C204.194 189.378 206.377 186.192 205.758 182.889C205.135 179.572 201.947 177.392 198.625 178.015ZM219.785 290.841L219.754 290.847C216.448 291.467 214.282 294.651 214.901 297.953C215.52 301.255 218.725 303.431 222.03 302.811C225.351 302.188 227.534 299.002 226.915 295.7C226.295 292.398 223.107 290.218 219.785 290.841ZM122.196 243.688C125.517 243.065 127.683 239.882 127.061 236.564C126.442 233.262 123.269 231.079 119.948 231.702L119.916 231.708C116.611 232.328 114.444 235.512 115.064 238.814C115.686 242.132 118.89 244.308 122.196 243.688ZM145.678 345.479C145.471 345.337 145.198 345.289 144.981 345.182C143.815 344.579 142.503 344.25 141.105 344.512L141.073 344.518C137.768 345.138 135.601 348.322 136.224 351.64C136.527 353.259 137.472 354.61 138.72 355.477C138.723 355.493 138.723 355.493 138.723 355.493C140.028 356.399 141.684 356.811 143.353 356.498C143.671 356.439 143.917 356.261 144.226 356.154L144.223 356.138C145.595 355.65 146.716 354.783 147.428 353.581C147.541 353.396 147.582 353.174 147.676 352.976C147.891 352.541 148.108 352.122 148.2 351.645C148.345 350.928 148.37 350.184 148.224 349.406L148.237 349.387C147.951 347.863 147.078 346.63 145.941 345.742C145.847 345.677 145.788 345.54 145.678 345.479ZM277.126 136.276C277.897 136.443 278.725 136.469 279.551 136.314C280.425 136.15 281.212 135.789 281.897 135.315C281.91 135.296 281.923 135.278 281.951 135.256C282.617 134.769 283.163 134.174 283.577 133.488C284.347 132.243 284.708 130.745 284.419 129.205C283.797 125.887 280.608 123.708 277.303 124.328L277.271 124.334C273.966 124.954 271.799 128.138 272.422 131.455C272.886 133.932 274.795 135.776 277.126 136.276ZM286.604 173.923C289.909 173.303 292.092 170.116 291.473 166.814C290.85 163.496 287.662 161.317 284.356 161.937L284.324 161.943C281.019 162.563 278.853 165.746 279.475 169.064C280.094 172.366 283.299 174.543 286.604 173.923ZM293.657 211.531C296.963 210.911 299.145 207.725 298.523 204.407C297.904 201.105 294.715 198.926 291.41 199.545L291.378 199.551C288.073 200.171 285.906 203.355 286.525 206.657C287.148 209.975 290.352 212.151 293.657 211.531ZM148.715 148.444L148.683 148.45C145.378 149.07 143.195 152.257 143.817 155.575C144.437 158.877 147.641 161.053 150.962 160.43C154.268 159.81 156.45 156.624 155.831 153.321C155.209 150.004 152.02 147.824 148.715 148.444ZM141.664 110.851L141.632 110.857C138.327 111.477 136.142 114.648 136.764 117.966C137.383 121.268 140.588 123.444 143.909 122.821C147.214 122.201 149.397 119.015 148.778 115.713C148.155 112.395 144.97 110.231 141.664 110.851ZM134.611 73.2426L134.579 73.2485C131.274 73.8684 129.092 77.055 129.711 80.3571C130.33 83.6592 133.535 85.8355 136.856 85.2126C140.161 84.5927 142.344 81.4061 141.724 78.104C141.105 74.802 137.916 72.6227 134.611 73.2426ZM136.299 318.89C139.621 318.267 141.787 315.083 141.168 311.781C140.548 308.479 137.376 306.297 134.054 306.92L134.023 306.926C130.717 307.545 128.551 310.729 129.17 314.031C129.79 317.333 132.994 319.51 136.299 318.89ZM129.249 281.297C132.57 280.674 134.737 277.49 134.114 274.172C133.495 270.87 130.322 268.688 127.001 269.311L126.969 269.317C123.664 269.937 121.498 273.12 122.117 276.422C122.739 279.74 125.944 281.917 129.249 281.297ZM155.768 186.053L155.736 186.059C152.431 186.679 150.248 189.865 150.871 193.183C151.49 196.485 154.695 198.662 158.016 198.039C161.321 197.419 163.503 194.232 162.884 190.93C162.262 187.612 159.073 185.433 155.768 186.053ZM184.522 102.814L184.49 102.82C181.185 103.439 179.015 106.607 179.637 109.925C180.257 113.227 183.461 115.404 186.767 114.784C190.088 114.161 192.27 110.974 191.651 107.672C191.029 104.354 187.843 102.191 184.522 102.814ZM176.928 298.879L176.896 298.885C173.591 299.505 171.408 302.691 172.028 305.993C172.647 309.296 175.852 311.472 179.173 310.849C182.478 310.229 184.66 307.042 184.041 303.74C183.422 300.438 180.233 298.259 176.928 298.879ZM183.978 336.472L183.946 336.478C180.641 337.098 178.459 340.284 179.081 343.602C179.7 346.904 182.905 349.081 186.226 348.458C189.531 347.838 191.714 344.651 191.094 341.349C190.472 338.031 187.283 335.852 183.978 336.472ZM169.875 261.27L169.843 261.276C166.537 261.896 164.355 265.083 164.974 268.385C165.597 271.703 168.801 273.879 172.122 273.256C175.428 272.636 177.61 269.45 176.988 266.132C176.369 262.83 173.18 260.65 169.875 261.27ZM162.821 223.662L162.789 223.668C159.484 224.287 157.302 227.474 157.921 230.776C158.543 234.094 161.748 236.27 165.069 235.647C168.374 235.028 170.557 231.841 169.935 228.523C169.315 225.221 166.127 223.042 162.821 223.662Z" fill="#12073A" fill-opacity="0.05"/>
<path d="M104.501 65.5146L170.013 310.006L414.517 244.491L349.005 0L104.501 65.5146Z" fill="#2D9CDB" fill-opacity="0.05"/>
</svg>
