<svg width="777" height="705" viewBox="0 0 777 705" fill="none" xmlns="http://www.w3.org/2000/svg">
<path d="M155.409 48.4705C153.949 53.9215 147.531 56.9316 141.064 55.1987C134.597 53.4659 130.544 47.6501 132.004 42.1991C133.465 36.7482 139.883 33.7381 146.35 35.4709C152.817 37.2037 156.87 43.0196 155.409 48.4705Z" fill="#57585A" fill-opacity="0.1"/>
<path d="M749.7 271.146C748.242 276.589 741.64 279.555 734.956 277.764C728.272 275.973 724.03 270.102 725.488 264.659C726.948 259.21 733.558 256.245 740.242 258.037C746.927 259.828 751.161 265.697 749.7 271.146Z" fill="#57585A" fill-opacity="0.1"/>
<path d="M682.302 441.975C680.841 447.424 674.237 450.383 667.557 448.593C660.869 446.801 656.629 440.937 658.089 435.488C659.549 430.038 666.155 427.073 672.843 428.865C679.523 430.655 683.762 436.526 682.302 441.975Z" fill="#57585A" fill-opacity="0.1"/>
<path d="M120.311 211.744C118.85 217.195 112.244 220.154 105.554 218.362C98.8637 216.569 94.6379 210.707 96.0984 205.256C97.559 199.805 104.15 196.841 110.84 198.634C117.53 200.426 121.771 206.293 120.311 211.744Z" fill="#57585A" fill-opacity="0.1"/>
<path d="M86.6666 359.904C85.2065 365.353 78.6022 368.312 71.9143 366.52C65.2343 364.73 60.9942 358.866 62.4543 353.416C63.9144 347.967 70.5203 345.002 77.2004 346.792C83.8883 348.584 88.1267 354.455 86.6666 359.904Z" fill="#57585A" fill-opacity="0.1"/>
<path d="M622.081 595.698C620.623 601.141 614.017 604.106 607.329 602.314C600.641 600.522 596.41 594.653 597.869 589.21C599.329 583.761 605.927 580.794 612.615 582.586C619.303 584.378 623.541 590.249 622.081 595.698Z" fill="#57585A" fill-opacity="0.1"/>
<path d="M327.181 473.168L123.844 455.467L181.961 573.126L405.342 585.065L327.181 473.168Z" stroke="#57585A" stroke-opacity="0.1" stroke-miterlimit="10"/>
<path d="M327.181 473.168L515.31 490.716L608.419 596.853L405.342 585.066L327.181 473.168Z" stroke="#57585A" stroke-opacity="0.1" stroke-miterlimit="10"/>
<path d="M327.18 473.168L123.844 455.467L73.169 359.943L264.493 380.808L327.18 473.168Z" stroke="#57585A" stroke-opacity="0.1" stroke-miterlimit="10"/>
<path d="M327.18 473.168L515.31 490.716L435.636 398.992L264.493 380.809L327.18 473.168Z" stroke="#57585A" stroke-opacity="0.1" stroke-miterlimit="10"/>
<path d="M302.976 237.189L106.638 211.835L142.483 48.2884L344.678 81.5554L302.976 237.189Z" stroke="#57585A" stroke-opacity="0.1" stroke-miterlimit="10"/>
<path d="M302.976 237.189L481.784 261.552L529.213 113.878L344.677 81.5554L302.976 237.189Z" stroke="#57585A" stroke-opacity="0.1" stroke-miterlimit="10"/>
<path d="M302.976 237.189L106.637 211.835L71.7439 359.561L264.261 380.746L302.976 237.189Z" stroke="#57585A" stroke-opacity="0.1" stroke-miterlimit="10"/>
<path d="M302.976 237.189L481.784 261.552L435.897 397.987L264.261 380.746L302.976 237.189Z" stroke="#57585A" stroke-opacity="0.1" stroke-miterlimit="10"/>
<path d="M458.705 424.292L227.969 401.421L279.708 208.326L518.836 242.812L458.705 424.292Z" stroke="#57585A" stroke-opacity="0.1" stroke-miterlimit="10"/>
<path d="M458.705 424.292L668.584 441.798L736.414 270.99L518.836 242.812L458.705 424.292Z" stroke="#57585A" stroke-opacity="0.1" stroke-miterlimit="10"/>
<path d="M419.362 152.465L202.349 118.095L279.708 208.326L518.836 242.812L419.362 152.465Z" stroke="#57585A" stroke-opacity="0.1" stroke-miterlimit="10"/>
<path d="M419.363 152.465L622.962 183.464L736.414 270.99L518.836 242.812L419.363 152.465Z" stroke="#57585A" stroke-opacity="0.1" stroke-miterlimit="10"/>
<path d="M458.705 424.292L227.969 401.421L181.961 573.126L405.342 585.065L458.705 424.292Z" stroke="#57585A" stroke-opacity="0.1" stroke-miterlimit="10"/>
<path d="M458.705 424.292L668.584 441.798L608.419 596.853L405.342 585.066L458.705 424.292Z" stroke="#57585A" stroke-opacity="0.1" stroke-miterlimit="10"/>
<path d="M160.751 297.873L227.969 401.421L279.708 208.326L202.234 118.429L160.751 297.873Z" stroke="#57585A" stroke-opacity="0.1" stroke-miterlimit="10"/>
<path d="M160.751 297.873L227.969 401.421L181.96 573.126L123.844 455.468L160.751 297.873Z" stroke="#57585A" stroke-opacity="0.1" stroke-miterlimit="10"/>
<path d="M160.751 297.873L106.645 211.837L142.483 48.2885L202.234 118.429L160.751 297.873Z" stroke="#57585A" stroke-opacity="0.1" stroke-miterlimit="10"/>
<path d="M160.751 297.873L106.645 211.837L73.1612 359.941L123.844 455.467L160.751 297.873Z" stroke="#57585A" stroke-opacity="0.1" stroke-miterlimit="10"/>
<path d="M419.363 152.465L202.349 118.095L142.483 48.2885L344.678 81.5554L419.363 152.465Z" stroke="#57585A" stroke-opacity="0.1" stroke-miterlimit="10"/>
<path d="M419.363 152.465L622.962 183.464L529.214 113.878L344.678 81.5553L419.363 152.465Z" stroke="#57585A" stroke-opacity="0.1" stroke-miterlimit="10"/>
<path d="M566.113 343.77L481.784 261.552L529.214 113.878L622.962 183.464L566.113 343.77Z" stroke="#57585A" stroke-opacity="0.1" stroke-miterlimit="10"/>
<path d="M566.113 343.77L481.784 261.552L435.905 397.989L515.169 491.118L566.113 343.77Z" stroke="#57585A" stroke-opacity="0.1" stroke-miterlimit="10"/>
<path d="M566.113 343.77L668.584 441.798L736.415 270.983L622.962 183.464L566.113 343.77Z" stroke="#57585A" stroke-opacity="0.1" stroke-miterlimit="10"/>
<path d="M566.113 343.77L668.584 441.798L608.419 596.853L515.169 491.118L566.113 343.77Z" stroke="#57585A" stroke-opacity="0.1" stroke-miterlimit="10"/>
<path d="M214.238 121.645C212.791 127.047 206.243 129.986 199.614 128.209C192.992 126.435 188.791 120.616 190.238 115.215C191.686 109.814 198.232 106.881 204.853 108.655C211.482 110.431 215.685 116.244 214.238 121.645Z" fill="#57585A" fill-opacity="0.1"/>
<path d="M291.712 211.542C290.265 216.943 283.718 219.876 277.089 218.1C270.46 216.323 266.265 210.513 267.712 205.111C269.16 199.71 275.7 196.769 282.329 198.545C288.958 200.322 293.159 206.141 291.712 211.542Z" fill="#57585A" fill-opacity="0.1"/>
<path d="M530.832 246.026C529.385 251.428 522.839 254.36 516.217 252.586C509.588 250.81 505.385 244.997 506.833 239.596C508.28 234.194 514.826 231.262 521.455 233.038C528.077 234.812 532.279 240.625 530.832 246.026Z" fill="#57585A" fill-opacity="0.1"/>
<path d="M430.894 155.555C429.446 160.956 422.899 163.895 416.269 162.119C409.648 160.345 405.447 154.525 406.894 149.124C408.34 143.729 414.888 140.79 421.509 142.564C428.138 144.341 432.339 150.16 430.894 155.555Z" fill="#57585A" fill-opacity="0.1"/>
<path d="M356.681 84.7717C355.236 90.1667 348.688 93.1057 342.059 91.3294C335.43 89.5532 331.237 83.7361 332.682 78.3411C334.129 72.9399 340.669 69.9988 347.299 71.7751C353.928 73.5513 358.129 79.3705 356.681 84.7717Z" fill="#57585A" fill-opacity="0.1"/>
<path d="M541.217 117.094C539.77 122.496 533.222 125.435 526.593 123.658C519.972 121.884 515.77 116.065 517.218 110.664C518.663 105.269 525.211 102.33 531.832 104.104C538.462 105.88 542.663 111.699 541.217 117.094Z" fill="#57585A" fill-opacity="0.1"/>
<path d="M634.965 186.68C633.518 192.082 626.97 195.02 620.341 193.244C613.712 191.468 609.519 185.651 610.966 180.25C612.412 174.855 618.952 171.914 625.581 173.69C632.21 175.466 636.411 181.285 634.965 186.68Z" fill="#57585A" fill-opacity="0.1"/>
<path d="M578.177 346.732C576.73 352.133 570.189 355.074 563.553 353.296C556.931 351.522 552.73 345.702 554.177 340.301C555.625 334.9 562.171 331.967 568.792 333.741C575.429 335.52 579.624 341.33 578.177 346.732Z" fill="#57585A" fill-opacity="0.1"/>
<path d="M493.558 265.626C492.11 271.028 485.564 273.96 478.935 272.184C472.306 270.408 468.111 264.597 469.558 259.196C471.006 253.795 477.546 250.854 484.175 252.63C490.804 254.406 495.005 260.225 493.558 265.626Z" fill="#57585A" fill-opacity="0.1"/>
<path d="M314.979 240.405C313.532 245.806 306.984 248.745 300.355 246.969C293.726 245.193 289.533 239.376 290.98 233.975C292.426 228.58 298.966 225.639 305.595 227.415C312.224 229.191 316.425 235.01 314.979 240.405Z" fill="#57585A" fill-opacity="0.1"/>
<path d="M172.747 301.087C171.299 306.488 164.752 309.427 158.13 307.653C151.501 305.877 147.3 300.058 148.747 294.656C150.193 289.262 156.741 286.323 163.37 288.099C169.991 289.873 174.192 295.692 172.747 301.087Z" fill="#57585A" fill-opacity="0.1"/>
<path d="M239.972 404.637C238.525 410.039 231.978 412.971 225.349 411.195C218.72 409.419 214.525 403.608 215.972 398.207C217.42 392.806 223.96 389.865 230.589 391.641C237.218 393.417 241.419 399.236 239.972 404.637Z" fill="#57585A" fill-opacity="0.1"/>
<path d="M470.708 427.509C469.263 432.904 462.715 435.842 456.086 434.066C449.457 432.29 445.263 426.473 446.709 421.078C448.156 415.677 454.696 412.736 461.325 414.512C467.954 416.288 472.155 422.107 470.708 427.509Z" fill="#57585A" fill-opacity="0.1"/>
<path d="M447.632 402.206C446.186 407.601 439.638 410.54 433.009 408.764C426.388 406.99 422.187 401.171 423.633 395.776C425.08 390.374 431.628 387.435 438.249 389.21C444.878 390.986 449.079 396.805 447.632 402.206Z" fill="#57585A" fill-opacity="0.1"/>
<path d="M276.997 382.157C275.55 387.558 269.002 390.497 262.373 388.721C255.744 386.945 251.55 381.128 252.998 375.726C254.445 370.325 260.983 367.39 267.613 369.167C274.242 370.943 278.444 376.756 276.997 382.157Z" fill="#57585A" fill-opacity="0.1"/>
<path d="M135.84 458.682C134.393 464.083 127.853 467.024 121.224 465.248C114.595 463.472 110.401 457.654 111.849 452.253C113.294 446.858 119.834 443.917 126.463 445.693C133.092 447.47 137.286 453.287 135.84 458.682Z" fill="#57585A" fill-opacity="0.1"/>
<path d="M193.964 576.342C192.517 581.744 185.971 584.676 179.341 582.9C172.712 581.124 168.517 575.313 169.965 569.912C171.412 564.51 177.952 561.569 184.581 563.346C191.21 565.122 195.411 570.941 193.964 576.342Z" fill="#57585A" fill-opacity="0.1"/>
<path d="M417.337 588.28C415.89 593.681 409.342 596.62 402.721 594.846C396.092 593.07 391.898 587.252 393.346 581.851C394.791 576.456 401.331 573.515 407.96 575.291C414.582 577.066 418.783 582.885 417.337 588.28Z" fill="#57585A" fill-opacity="0.1"/>
<path d="M525.864 493.983C524.417 499.385 517.869 502.324 511.24 500.547C504.611 498.771 500.417 492.954 501.864 487.553C503.31 482.158 509.85 479.217 516.479 480.993C523.108 482.769 527.309 488.588 525.864 493.983Z" fill="#57585A" fill-opacity="0.1"/>
<path d="M339.176 476.382C337.729 481.783 331.183 484.716 324.562 482.942C317.933 481.165 313.73 475.353 315.177 469.951C316.624 464.55 323.172 461.611 329.801 463.387C336.423 465.161 340.624 470.981 339.176 476.382Z" fill="#57585A" fill-opacity="0.1"/>
</svg>
