<svg width="1087" height="1033" viewBox="0 0 1087 1033" fill="none" xmlns="http://www.w3.org/2000/svg">
<path d="M701.16 921.114L464.539 808.16L202.012 787.276" stroke="black" stroke-opacity="0.15" stroke-miterlimit="10" stroke-linecap="round" stroke-linejoin="round"/>
<path d="M464.542 808.15L542.905 515.693" stroke="black" stroke-opacity="0.15" stroke-miterlimit="10" stroke-linecap="round" stroke-linejoin="round"/>
<path d="M814.814 176.198L835.298 437.606L947.321 673.901" stroke="black" stroke-opacity="0.15" stroke-miterlimit="10" stroke-linecap="round" stroke-linejoin="round"/>
<path d="M835.298 437.606L542.832 515.968" stroke="black" stroke-opacity="0.15" stroke-miterlimit="10" stroke-linecap="round" stroke-linejoin="round"/>
<path d="M111.702 449.794L328.732 301.861L477.373 85.6562" stroke="black" stroke-opacity="0.15" stroke-miterlimit="10" stroke-linecap="round" stroke-linejoin="round"/>
<path d="M328.73 301.872L541.93 515.442" stroke="black" stroke-opacity="0.15" stroke-miterlimit="10" stroke-linecap="round" stroke-linejoin="round"/>
<path d="M266.175 856.209L251.331 593.227L541.876 515.429L754.548 728.132L610.261 948.407L266.175 856.209Z" stroke="black" stroke-opacity="0.15" stroke-miterlimit="10" stroke-linecap="round" stroke-linejoin="round"/>
<path d="M974.866 583.802L754.543 728.153L541.879 515.418L619.777 224.911L882.664 239.71L974.866 583.802Z" stroke="black" stroke-opacity="0.15" stroke-miterlimit="10" stroke-linecap="round" stroke-linejoin="round"/>
<path d="M384.601 106.266L619.783 224.89L541.876 515.428L251.362 593.235L132.71 358.147L384.601 106.266Z" stroke="black" stroke-opacity="0.15" stroke-miterlimit="10" stroke-linecap="round" stroke-linejoin="round"/>
<path d="M813.847 175.576L882.767 239.749L619.783 224.89L384.601 106.266L476.375 85.1506L813.847 175.576Z" stroke="black" stroke-opacity="0.15" stroke-miterlimit="10" stroke-linecap="round" stroke-linejoin="round"/>
<path d="M111.586 449.808L132.682 358.038L251.31 593.222L266.175 856.209L202.012 787.277L111.586 449.808Z" stroke="black" stroke-opacity="0.15" stroke-miterlimit="10" stroke-linecap="round" stroke-linejoin="round"/>
<path d="M700.208 920.859L610.182 948.488L754.54 728.164L974.866 583.802L947.261 673.829L700.208 920.859Z" stroke="black" stroke-opacity="0.15" stroke-miterlimit="10" stroke-linecap="round" stroke-linejoin="round"/>
<path d="M830.621 182.77C828.194 191.828 818.883 197.204 809.835 194.78C800.767 192.35 795.423 183.047 797.85 173.989C800.274 164.942 809.554 159.557 818.622 161.987C827.669 164.411 833.045 173.723 830.621 182.77Z" fill="black" fill-opacity="0.15"/>
<path d="M899.161 244.131C896.737 253.178 887.425 258.554 878.378 256.13C869.331 253.706 863.965 244.397 866.39 235.35C868.817 226.292 878.118 220.913 887.165 223.337C896.212 225.761 901.588 235.073 899.161 244.131Z" fill="black" fill-opacity="0.15"/>
<path d="M637.147 229.542C634.72 238.6 625.409 243.976 616.361 241.552C607.293 239.122 601.949 229.819 604.376 220.761C606.8 211.714 616.08 206.329 625.148 208.759C634.196 211.184 639.572 220.495 637.147 229.542Z" fill="black" fill-opacity="0.15"/>
<path d="M480.933 812.542C478.506 821.6 469.195 826.975 460.147 824.551C451.079 822.121 445.734 812.818 448.161 803.76C450.589 794.703 459.865 789.329 468.934 791.759C477.981 794.183 483.36 803.484 480.933 812.542Z" fill="black" fill-opacity="0.15"/>
<path d="M851.689 441.998C849.265 451.046 839.953 456.422 830.906 453.997C821.837 451.568 816.493 442.265 818.917 433.217C821.344 424.159 830.624 418.775 839.693 421.205C848.74 423.629 854.116 432.94 851.689 441.998Z" fill="black" fill-opacity="0.15"/>
<path d="M558.651 520.206C556.224 529.264 546.923 534.643 537.876 532.219C528.829 529.795 523.453 520.483 525.88 511.425C528.304 502.378 537.615 497.002 546.663 499.426C555.71 501.85 561.076 511.159 558.651 520.206Z" fill="black" fill-opacity="0.15"/>
<path d="M770.957 732.46C768.53 741.518 759.218 746.894 750.171 744.47C741.102 742.04 735.726 732.728 738.153 723.67C740.578 714.623 749.889 709.247 758.958 711.677C768.005 714.101 773.381 723.413 770.957 732.46Z" fill="black" fill-opacity="0.15"/>
<path d="M940.239 622.453C937.812 631.511 928.5 636.887 919.453 634.463C910.406 632.039 905.03 622.727 907.457 613.669C909.881 604.622 919.192 599.246 928.24 601.67C937.287 604.094 942.663 613.406 940.239 622.453Z" fill="black" fill-opacity="0.15"/>
<path d="M991.283 588.099C988.856 597.157 979.547 602.522 970.5 600.098C961.452 597.674 956.073 588.373 958.5 579.315C960.928 570.257 970.236 564.892 979.284 567.316C988.331 569.74 993.71 579.041 991.283 588.099Z" fill="black" fill-opacity="0.15"/>
<path d="M966.887 679.144C964.463 688.191 955.151 693.567 946.104 691.143C937.057 688.719 931.681 679.407 934.105 670.36C936.532 661.302 945.843 655.926 954.891 658.35C963.938 660.774 969.314 670.086 966.887 679.144Z" fill="black" fill-opacity="0.15"/>
<path d="M717.572 925.512C715.145 934.57 705.844 939.948 696.765 937.516C687.718 935.091 682.342 925.78 684.769 916.722C687.193 907.675 696.505 902.299 705.552 904.723C714.631 907.156 719.997 916.464 717.572 925.512Z" fill="black" fill-opacity="0.15"/>
<path d="M627.467 949.501C625.04 958.559 615.739 963.938 606.692 961.514C597.645 959.089 592.269 949.778 594.696 940.72C597.12 931.673 606.431 926.297 615.479 928.721C624.526 931.145 629.891 940.454 627.467 949.501Z" fill="black" fill-opacity="0.15"/>
<path d="M460.907 83.7055C458.48 92.7634 463.856 102.075 472.903 104.499C481.951 106.923 491.262 101.547 493.689 92.4894C496.113 83.4421 490.738 74.1306 481.69 71.7064C472.643 69.2821 463.331 74.6581 460.907 83.7055Z" fill="black" fill-opacity="0.15"/>
<path d="M370.848 102.569C368.424 111.617 373.789 120.925 382.868 123.358C391.916 125.782 401.227 120.406 403.651 111.359C406.078 102.301 400.703 92.9897 391.655 90.5654C382.576 88.1327 373.275 93.5115 370.848 102.569Z" fill="black" fill-opacity="0.15"/>
<path d="M313.048 297.67C310.624 306.717 316 316.028 325.047 318.453C334.095 320.877 343.406 315.501 345.83 306.454C348.257 297.396 342.881 288.084 333.834 285.66C324.787 283.236 315.475 288.612 313.048 297.67Z" fill="black" fill-opacity="0.15"/>
<path d="M237.734 589.583C235.306 598.641 240.682 607.953 249.73 610.377C258.809 612.81 268.11 607.431 270.537 598.373C272.961 589.325 267.596 580.017 258.517 577.584C249.469 575.16 240.158 580.536 237.734 589.583Z" fill="black" fill-opacity="0.15"/>
<path d="M146.145 409.676C143.718 418.734 149.094 428.045 158.141 430.47C167.188 432.894 176.489 427.515 178.916 418.457C181.34 409.41 175.975 400.101 166.928 397.677C157.88 395.253 148.569 400.629 146.145 409.676Z" fill="black" fill-opacity="0.15"/>
<path d="M119.116 354.403C116.689 363.461 122.068 372.762 131.115 375.186C140.163 377.61 149.461 372.242 151.888 363.184C154.315 354.126 148.947 344.828 139.899 342.404C130.852 339.979 121.543 345.345 119.116 354.403Z" fill="black" fill-opacity="0.15"/>
<path d="M94.7212 445.448C92.2969 454.495 97.6729 463.807 106.72 466.231C115.768 468.655 125.068 463.276 127.493 454.229C129.92 445.171 124.554 435.862 115.507 433.438C106.46 431.014 97.1482 436.39 94.7212 445.448Z" fill="black" fill-opacity="0.15"/>
<path d="M187.44 783.463C185.012 792.521 190.388 801.832 199.457 804.262C208.504 806.686 217.816 801.31 220.243 792.252C222.667 783.205 217.291 773.893 208.244 771.469C199.175 769.039 189.864 774.415 187.44 783.463Z" fill="black" fill-opacity="0.15"/>
<path d="M253.478 849.291C251.051 858.349 256.427 867.661 265.474 870.085C274.522 872.509 283.833 867.133 286.26 858.075C288.684 849.028 283.308 839.716 274.261 837.292C265.214 834.868 255.902 840.244 253.478 849.291Z" fill="black" fill-opacity="0.15"/>
</svg>
