<svg width="471" height="512" viewBox="0 0 471 512" fill="none" xmlns="http://www.w3.org/2000/svg">
<path d="M84.4116 407.414L235.749 256.08" stroke="#57585A" stroke-opacity="0.05" stroke-miterlimit="10" stroke-linecap="round" stroke-linejoin="round"/>
<path d="M180.353 49.3566L235.744 256.081L442.469 311.472" stroke="#57585A" stroke-opacity="0.05" stroke-miterlimit="10" stroke-linecap="round" stroke-linejoin="round"/>
<path d="M387.076 104.744L235.744 256.081L29.0185 200.685L180.352 49.3521L387.076 104.744Z" stroke="#57585A" stroke-opacity="0.05" stroke-miterlimit="10" stroke-linecap="round" stroke-linejoin="round"/>
<path d="M387.076 104.744L442.469 311.472L291.135 462.801L235.744 256.081L387.076 104.744Z" stroke="#57585A" stroke-opacity="0.05" stroke-miterlimit="10" stroke-linecap="round" stroke-linejoin="round"/>
<path d="M29.0186 200.685L84.4114 407.414L291.135 462.801L235.744 256.081L29.0186 200.685Z" stroke="#57585A" stroke-opacity="0.05" stroke-miterlimit="10" stroke-linecap="round" stroke-linejoin="round"/>
<path d="M187.482 47.4463C188.536 51.3791 186.204 55.4255 182.266 56.4806C178.329 57.5356 174.286 55.1975 173.232 51.2646C172.177 47.3272 174.509 43.2808 178.447 42.2258C182.384 41.1708 186.427 43.5089 187.482 47.4463Z" fill="#57585A" fill-opacity="0.05"/>
<path d="M242.874 254.171C243.929 258.108 241.596 262.15 237.658 263.205C233.721 264.26 229.679 261.926 228.624 257.989C227.569 254.051 229.903 250.01 233.84 248.955C237.777 247.9 241.819 250.233 242.874 254.171Z" fill="#57585A" fill-opacity="0.05"/>
<path d="M394.201 102.834C395.256 106.772 392.923 110.814 388.985 111.869C385.048 112.924 381.006 110.59 379.951 106.653C378.896 102.715 381.23 98.6735 385.167 97.6185C389.105 96.5634 393.146 98.897 394.201 102.834Z" fill="#57585A" fill-opacity="0.05"/>
<path d="M449.594 309.563C450.649 313.501 448.315 317.542 444.378 318.597C440.441 319.653 436.399 317.319 435.344 313.382C434.289 309.444 436.622 305.402 440.56 304.347C444.497 303.292 448.539 305.626 449.594 309.563Z" fill="#57585A" fill-opacity="0.05"/>
<path d="M91.5411 405.503C92.5962 409.441 90.258 413.484 86.3206 414.539C82.3832 415.594 78.3414 413.26 77.2864 409.323C76.2313 405.385 78.5649 401.344 82.5023 400.289C86.4397 399.234 90.4861 401.566 91.5411 405.503Z" fill="#57585A" fill-opacity="0.05"/>
<path d="M36.1493 198.779C37.2031 202.712 34.8662 206.76 30.9288 207.815C26.9914 208.87 22.9483 206.531 21.8945 202.599C20.8395 198.661 23.1718 194.615 27.1092 193.56C31.0467 192.505 35.0943 194.842 36.1493 198.779Z" fill="#57585A" fill-opacity="0.05"/>
<path d="M298.265 460.89C299.32 464.828 296.981 468.871 293.044 469.926C289.107 470.981 285.065 468.647 284.01 464.71C282.955 460.772 285.288 456.731 289.226 455.675C293.163 454.62 297.21 456.953 298.265 460.89Z" fill="#57585A" fill-opacity="0.05"/>
</svg>
